<?xml version="1.0" encoding="utf-8"?>
<!-- Generator: Adobe Illustrator 26.0.1, SVG Export Plug-In . SVG Version: 6.00 Build 0)  -->
<svg version="1.1" id="Layer_1" xmlns="http://www.w3.org/2000/svg" xmlns:xlink="http://www.w3.org/1999/xlink" x="0px" y="0px"
	 viewBox="0 0 1080 1080" style="enable-background:new 0 0 1080 1080;" xml:space="preserve">
<style type="text/css">
	.st0{fill:#55DBFF;}
	.st1{fill:#5A99FF;}
</style>
<g id="Layer_2_00000132770092632674220260000002504570303020785854_">
	<g>
		<path d="M538.9,253.4c34.4,0,68.9,0,103.3,0c15.3,0,18.8,4.7,19.6,20c1.1,19.4,2.4,38.9,6,57.9c4.8,25.2,17.4,46.3,36.1,64.7
			c103.6,101.1,92.3,270.5-23.2,357.3C550,851.6,360.8,791.4,313.2,635.1C286.5,547,305.9,467,370,401.3
			c34.4-35.3,45-76.1,46.2-122.1c0.1-3-0.1-6,0.1-9c0.8-11.9,5.6-16.6,17.6-16.7C468.8,253.4,503.8,253.4,538.9,253.4z M632.5,283.2
			c-1.8-0.2-3.2-0.5-4.7-0.5c-58.7,0-117.4,0-176.1-0.1c-5.3,0-7.9,1.5-7.7,7c0.1,2.7-0.1,5.4-0.3,8.1
			c-3.9,46.6-17.2,88.6-52.5,122.3c-35.1,33.5-54.1,76.1-58.4,124.1c-6.4,71.1,17.3,131.1,70.8,179c68.8,61.6,181.3,67.3,255.5,12.3
			c61.9-45.9,91.6-107.5,87-184.7c-3-50.1-22-94.1-57.8-128.9c-27.7-26.9-44.1-58.4-50.4-95.8C635.7,311.9,634.4,297.6,632.5,283.2z
			"/>
		<path d="M540.5,165.7c31.4,0,62.8-0.2,94.2,0.1c17.5,0.2,31.9,13.1,34.2,29.7c2.5,17.5-6.8,33.4-23.2,38.9c-4.7,1.6-10,2.4-15,2.4
			c-60.7,0.2-121.5,0.2-182.2,0c-21.4-0.1-36.8-12.9-38.6-31.2c-2.2-22.2,13.8-39.6,37.2-39.9C478.2,165.4,509.2,165.7,540.5,165.7
			L540.5,165.7z M539.2,209c26.3,0,52.6,0,79,0c5.1,0,10.3,0.7,15.2-0.3c2.7-0.6,6.6-4,6.6-6.2c0-2.4-3.4-5.5-6.1-7.1
			c-2.1-1.2-5.2-0.5-7.9-0.5c-57.7,0-115.4,0-173.2,0c-2.4,0-5.3-0.7-7.1,0.3c-2.7,1.6-6.5,4.6-6.3,6.8c0.1,2.4,3.9,5.1,6.6,6.7
			c1.8,1,4.7,0.3,7.1,0.3C481.8,209,510.5,209,539.2,209z"/>
		<path d="M540.2,79.6c22.2,0,44.3-0.4,66.5,0.1c17.3,0.4,30.7,12.4,34,29.1c3,15.1-4.9,31.3-19.2,38c-4.5,2.1-9.7,3.8-14.6,3.8
			c-45.2,0.3-90.4,0.6-135.6-0.1c-18.1-0.3-30.3-12.6-33.1-29.8c-2.5-15.5,5.4-31.2,20.1-37.5c5.6-2.4,12.1-3.4,18.3-3.6
			C497.7,79.3,519,79.5,540.2,79.6C540.2,79.5,540.2,79.6,540.2,79.6z M539.9,122.8c20.9,0,41.9,0,62.8,0c4.8,0,9.7-0.4,9.9-6.4
			c0.2-6.4-4.9-7.4-10.1-7.4c-41.9,0-83.8,0-125.7,0c-5.1,0-10.4,0.6-10.3,7.1c0.1,6.5,5.4,6.7,10.5,6.7
			C498,122.8,518.9,122.8,539.9,122.8z"/>
		<path d="M697,834.9c3.3-3.6,6.1-9.5,10.5-11c4.4-1.4,10.2,1.4,15.4,2.8c1.2,0.3,2,2.1,2.8,3.4c16.9,26.5,33.8,53,50.7,79.5
			c3.8,6,5.6,12.9,0.2,18.2c-3.3,3.3-9.4,5.3-14.1,5.1c-3.6-0.2-8.1-4-10.4-7.4c-17.1-26-33.8-52.3-50.4-78.6
			C700,843.9,699.2,840.3,697,834.9z"/>
		<path d="M553.7,936c0,15.3,0.1,30.5,0,45.8c-0.1,10.7-5.5,17.5-13.8,17.7c-8.5,0.3-14.7-7-14.7-17.9c-0.1-30.5-0.1-61.1,0-91.6
			c0-10.9,5.4-17.4,13.9-17.6c8.8-0.2,14.6,6.6,14.7,17.7C553.8,905.5,553.7,920.7,553.7,936z"/>
		<path d="M156.2,762.3c1.6-2,4-7.3,8.2-9.6c28.2-15.7,56.7-31,85.2-46.1c7.5-4,15.3-1.6,19,4.5c4.1,7,2.3,16-5.4,20.3
			c-28.5,15.8-57.2,31.4-86.1,46.4C166.6,783.3,156.1,776.5,156.2,762.3z"/>
		<path d="M808.4,722.4c-0.1-14.8,10.2-21,21-15.7c12.3,6.1,24.2,13,36.3,19.6c15.5,8.4,31,16.8,46.5,25.3
			c10.1,5.6,12.8,12.4,8.6,20.3c-4.2,7.8-12.9,9.8-22.6,4.6c-26.8-14.5-53.7-28.9-80.2-43.9C813.2,730,810.2,724.5,808.4,722.4z"/>
		<path d="M358.2,818.8c11.8-0.3,19.1,9.1,16.4,17.8c-0.7,2.3-1.8,4.5-3.1,6.4c-17.2,25.9-34.5,51.8-51.8,77.7
			c-0.8,1.2-1.7,2.4-2.8,3.5c-5.4,5.6-12.7,6.4-18.6,1.7c-6-4.8-7.4-11-3.5-17.5c4.9-8.2,10.4-16.1,15.7-24.1
			c12.6-18.9,25-38,38-56.7C351.2,823.6,356,820.8,358.2,818.8z"/>
		<path class="st0" d="M632.5,283.2c1.8,14.4,3,28.7,5.4,42.8c6.4,37.3,22.7,68.8,50.4,95.8c35.8,34.8,54.9,78.8,57.8,128.9
			c4.6,77.2-25.1,138.8-87,184.7c-74.2,55-186.7,49.3-255.5-12.3c-53.5-47.9-77.2-107.9-70.8-179c4.3-48,23.3-90.6,58.4-124.1
			c35.3-33.7,48.6-75.7,52.5-122.3c0.2-2.7,0.4-5.4,0.3-8.1c-0.2-5.5,2.4-7,7.7-7c58.7,0.2,117.4,0.1,176.1,0.1
			C629.4,282.7,630.9,283,632.5,283.2z M356,565.8c1.2,49.8,26.5,100.7,66.6,133.2c33.2,26.9,71.4,40.7,114.1,41.7
			c9.8,0.2,16.5-5.6,16.9-13.7c0.3-8.1-6.1-14.1-15.9-14.8c-1.5-0.1-3-0.1-4.5-0.2c-75.2-3.4-136.3-58.7-147-133.2
			c-1.1-7.7-1-15.5-2.2-23.2c-1.3-8.3-7.5-13-15-12.5c-7.4,0.5-12.6,6.3-13,14.6C355.8,560.4,356,563.1,356,565.8z"/>
		<path class="st1" d="M539.2,209c-28.7,0-57.4,0-86.1,0c-2.4,0-5.2,0.8-7.1-0.3c-2.7-1.6-6.5-4.3-6.6-6.7c-0.1-2.2,3.7-5.2,6.3-6.8
			c1.8-1.1,4.7-0.3,7.1-0.3c57.7,0,115.4,0,173.2,0c2.7,0,5.9-0.7,7.9,0.5c2.7,1.5,6.1,4.6,6.1,7.1c0,2.1-3.9,5.6-6.6,6.2
			c-4.9,1-10.1,0.3-15.2,0.3C591.9,209,565.5,209,539.2,209z"/>
		<path class="st1" d="M539.9,122.8c-20.9,0-41.9,0-62.8,0c-5.1,0-10.4-0.2-10.5-6.7c-0.1-6.5,5.2-7.1,10.3-7.1
			c41.9,0,83.8,0,125.7,0c5.2,0,10.2,1,10.1,7.4c-0.2,6-5.1,6.4-9.9,6.4C581.8,122.8,560.8,122.8,539.9,122.8z"/>
		<path d="M356,565.8c0-2.7-0.1-5.4,0-8.1c0.4-8.3,5.7-14,13-14.6c7.5-0.5,13.7,4.2,15,12.5c1.2,7.7,1.1,15.5,2.2,23.2
			c10.7,74.5,71.8,129.8,147,133.2c1.5,0.1,3,0.1,4.5,0.2c9.7,0.7,16.2,6.7,15.9,14.8s-7.1,13.9-16.9,13.7
			c-42.8-0.9-80.9-14.7-114.1-41.7C382.3,666.5,357.2,615.6,356,565.8z"/>
	</g>
</g>
</svg>
