<?xml version="1.0" encoding="utf-8"?>
<!-- Generator: Adobe Illustrator 26.0.1, SVG Export Plug-In . SVG Version: 6.00 Build 0)  -->
<svg version="1.1" id="Layer_1" xmlns="http://www.w3.org/2000/svg" xmlns:xlink="http://www.w3.org/1999/xlink" x="0px" y="0px"
	 viewBox="0 0 1080 1080" style="enable-background:new 0 0 1080 1080;" xml:space="preserve">
<style type="text/css">
	.st0{fill:#FFFFFF;}
	.st1{fill:#EE2A7B;}
</style>
<g>
	<path class="st0" d="M691.5,512.3c-0.1-1.4-0.5-2.8-1.1-4.4c-1.1,0.2-2.1,0.4-3.2,0.6c-0.5,0.1-1,0.2-1.6,0.3
		c-1,0.2-1.9,0.4-2.9,0.5c-1.7,0.3-3.4,0.6-5.1,1c2.7-4.8,6.2-8.7,7.2-13.3c0.6-2.7,0-4.3-1.1-5.3c-0.1-0.1-0.2-0.2-0.3-0.2
		c-0.1-0.1-0.2-0.1-0.3-0.2c-0.2-0.1-0.4-0.2-0.7-0.4c-0.1-0.1-0.2-0.1-0.3-0.1c-0.2-0.1-0.5-0.2-0.7-0.3s-0.5-0.1-0.8-0.2
		c-0.7-0.2-1.3-0.3-1.9-0.4c-0.4-0.1-0.8-0.2-1.1-0.3c-0.7-0.2-1.4-0.4-1.9-0.8c0.1-3.1,0.5-6.7-0.2-9.4c-0.1-0.5-0.3-0.9-0.5-1.3
		c0,0,0,0,0,0c-0.2-0.4-0.5-0.8-0.8-1.1c-0.1-0.1-0.2-0.2-0.3-0.3c-4.1-4-9.2-0.9-12.8,2.3c-0.7,0.6-1.5,1.3-2.2,1.9
		c-2.1,2-4.2,4-6.3,6c-1.4,1.4-2.7,2.7-4.1,4.1c-1.4,1.4-2.8,2.7-4.2,4c-0.2,0.2-0.3,0.3-0.5,0.5c-2.5,2.3-5.2,4.5-9.1,7.8
		c-0.8-5.1-1.7-8.2-1.8-11.3c0-2.1,0.2-4.3,0.4-6.4c0.1-1,0.2-1.9,0.2-2.9c0.1-2.1,0.2-4.1-0.1-6.2c-0.1-0.6-0.3-1.2-0.5-1.9
		c-0.1-0.2-0.2-0.4-0.3-0.6c-0.2-0.4-0.4-0.8-0.6-1.2c-1.1-2-2.7-3.9-3.9-5.9c-2.8,2-7.1,3.3-8.3,6c-0.2,0.5-0.5,1.1-0.7,1.6
		c-0.2,0.6-0.5,1.2-0.7,1.9c-0.2,0.5-0.4,1.1-0.5,1.6c-0.1,0.4-0.3,0.9-0.4,1.3c-0.4,1.3-0.8,2.6-1.1,3.9c-0.3,1.2-0.6,2.4-1,3.6
		c-0.2,0.7-0.4,1.4-0.5,2c-0.2,0.6-0.3,1.3-0.5,1.9c-0.3,1-0.6,2-0.9,3c-0.4,1.4-0.9,2.7-1.4,4c-0.6,1.6-1.2,3.1-1.9,4.7
		c-0.5,1.1-0.9,2.3-1.4,3.5c-0.2,0.6-0.5,1.1-0.7,1.7c-0.5-0.8-1.1-1.7-1.6-2.5c-5.3,0.6-11.3-0.2-15.8,2.1
		c-38.6,19.8-80,30.8-122,40c-5.2,1.2-11,4.6-15.1-0.8c-0.3-0.3-0.5-0.7-0.8-1.1c-0.2-0.4-0.5-0.8-0.7-1.3c-0.1-0.3-0.3-0.7-0.5-1
		c-0.2-0.5-0.4-1.1-0.6-1.7c-0.1-0.2-0.1-0.4-0.2-0.6c0,0,0,0,0,0c-0.1,0.4-0.1,0.8-0.2,1.1c-0.1,0.3-0.1,0.7-0.2,1
		c-0.4,2.2-0.6,3.5-0.7,4.6c0,0.2,0,0.4-0.1,0.6c-0.2,1.6-0.4,3.2-0.7,4.7c-0.5,2.3-1.3,4.4-2.4,6.5c-0.4,0.7-0.8,1.3-1.2,2
		c-0.5,0.7-1,1.3-1.5,1.9c-0.3,0.3-0.6,0.6-0.9,0.9c-0.3,0.3-0.6,0.6-0.9,0.9c-22,19.8-47.4,25.5-75.8,18.6
		c-0.9-0.2-1.8-0.5-2.6-0.8c-0.6-0.2-1.1-0.5-1.7-0.7c-0.6-0.2-1.1-0.5-1.7-0.8c-0.6-0.3-1.1-0.6-1.6-0.9c-1.1-0.6-2.2-1.2-3.2-1.8
		c-0.5-0.3-1-0.6-1.6-0.8c-0.3-0.1-0.5-0.3-0.8-0.4c3.1-5.8,7-10.3,7.7-15.2c0.6-4.2,2.1-6.2,4.3-7.2c1.8-0.8,4-0.9,6.5-0.9
		c2.8-0.1,5.5-0.2,8.3-0.3s5.5-0.4,8.2-0.6s5.5-0.5,8.2-0.9c2.7-0.3,5.4-0.8,8.1-1.2c10.8-1.8,21.4-4.4,31.7-7.7
		c0.9-0.3,1.9-0.6,2.8-0.9c1.9-0.6,3.8-1.3,5.6-2s3.7-1.4,5.6-2.2c1.9-0.8,3.7-1.5,5.5-2.3c0.9-0.4,1.8-0.8,2.8-1.2
		c1.2-0.5,2.4-1.1,3.6-1.7c0.3-0.1,0.5-0.2,0.8-0.3c0.4-0.2,0.7-0.3,1.1-0.5c1-0.5,1.9-0.9,2.9-1.4c1.9-1,3.8-1.9,5.7-2.9
		c3.8-2,7.5-4.1,11.1-6.3c0.9-0.5,1.8-1.1,2.7-1.7c2-1.3,4-2.6,5.9-3.9c0.6-0.5,1.3-0.9,1.9-1.3c17.8-12.7,32.7-28.7,42.7-49.9
		c0.2-0.4,0.4-0.7,0.7-1c0.4-0.4,0.9-0.8,1.4-1.2c0.2-0.1,0.4-0.3,0.7-0.5c0.1-0.1,0.2-0.1,0.3-0.2c0.2-0.1,0.4-0.2,0.6-0.4
		c0.3-0.2,0.5-0.4,0.8-0.5c0.4-0.3,0.8-0.6,1.1-0.9c3.9-3.5,8.1-6.7,12.1-10.1c0.7-0.6,1.3-1.2,1.9-1.7c0.6-0.6,1.2-1.2,1.8-1.8
		c1.6-1.6,3.1-3.4,4.4-5.2c9.4-13.4,7.9-31.2-2.3-41.7c-3-3-3.4-5.1-2.4-7.9c0.2-0.4,0.3-0.9,0.5-1.3c0.1-0.2,0.2-0.5,0.3-0.7
		c0.1-0.2,0.2-0.5,0.4-0.7c0.5-1,1-1.9,1.5-2.9c0.8-1.5,1.5-2.9,2.3-4.4c0,0,0,0,0,0c0.5-1,1-1.9,1.5-2.9c0,0,0,0,0,0
		c0.5-1,1-2,1.4-2.9c2.4-4.9,4.5-9.9,6.2-15c0.2-0.5,0.3-1,0.5-1.5c0,0,0,0,0,0c0.3-1,0.6-2,0.9-3.1c0.4-1.6,0.8-3.1,1.1-4.7
		c0.1-0.5,0.2-1.1,0.3-1.6c0.1-0.5,0.2-1.1,0.2-1.6c0.1-0.7,0.2-1.3,0.2-2s0.1-1.3,0.2-2c0-0.7,0.1-1.4,0.1-2c0-0.8,0-1.5,0-2.2
		c0-5.3-0.1-10.7-0.3-16c-0.2-5.3-0.5-10.7-0.9-16c-0.3-4.7-0.7-9.5-1.1-14.2c-0.2-2.4-0.4-4.7-0.7-7.1c-0.1-1.2-0.2-2.4-0.3-3.5
		c-0.4-3.7-0.9-7.3-1.6-10.9c-0.5-2.7-1.1-5.3-1.8-7.8c-0.2-0.9-0.5-1.7-0.7-2.5c-2.8-9.3-6.7-17.9-12-25.8c-1.4-2.1-3-4.3-4.6-6.3
		c-0.5-0.7-1.1-1.4-1.7-2c-1.1-1.3-2.3-2.7-3.5-4c-0.6-0.6-1.2-1.3-1.9-1.9c-3.8-3.8-8-7.4-12.5-10.8
		c-19.8-14.5-41.2-26.2-64.6-33.7c-2.3-0.8-4.7-1.4-7-2.1c-1.6-0.4-3.1-0.8-4.7-1.2c0,0,0,0,0,0c-0.6-0.1-1.2-0.3-1.8-0.4
		c-1.2-0.2-2.4-0.5-3.5-0.7c-0.6-0.1-1.2-0.2-1.8-0.3c-15.5-2.6-31.2-2.2-47,2.3c-0.6,0.2-1.1,0.4-1.7,0.6s-1.1,0.4-1.7,0.6
		c0,0,0,0,0,0c-0.8,0.3-1.7,0.7-2.5,1c0,0,0,0,0,0c-0.3,0.1-0.5,0.2-0.8,0.3c0.2,0.1,0.4,0.2,0.6,0.3s0.4,0.2,0.5,0.2
		c0.4,0.1,0.7,0.2,1,0.3c1.3,0.3,2.4,0.2,3.6,0.1c13.6-0.4,27.2-2.2,40.7-1.1c20.5,1.7,38.8,8.5,56,18c1.4,0.7,2.7,1.5,4,2.3
		c1.3,0.8,2.7,1.6,4,2.4h0c1.8,1.1,3.5,2.2,5.3,3.3c3.5,2.2,7,4.6,10.4,7c1.7,1.2,3.4,2.4,5.1,3.7c1.7,1.2,3.4,2.5,5.1,3.7
		c3.7,2.8,7.1,5.7,10.1,8.8c1,1,2,2.1,3,3.2c2.4,2.7,4.6,5.5,6.6,8.4c0.8,1.2,1.6,2.4,2.3,3.6c1.8,3,3.5,6.2,5,9.4
		c0.6,1.3,1.1,2.6,1.7,3.9c0.5,1.3,1,2.7,1.5,4c0,0,0,0,0,0c0.2,0.5,0.3,1,0.5,1.5c0.5,1.5,1,3.1,1.4,4.7c0.9,3.5,1.7,7.2,2.3,10.9
		c0.1,0.8,0.2,1.6,0.4,2.5c0.5,3.3,0.9,6.6,1.3,9.9c0.5,4.1,0.9,8.3,1.2,12.5c0.3,3.3,0.5,6.7,0.7,10c0.1,1.7,0.2,3.3,0.2,5
		c0.9,20.1-2.4,39.3-15.1,55.9c-0.1,0.1-0.2,0.3-0.2,0.5c0,0.2-0.1,0.5-0.1,0.9c0,0.1,0,0.2,0,0.4c0,0.5,0,1.1-0.1,1.8
		c2.1-1.4,3.8-2.6,5.8-3.9c0.7-0.4,1.4-0.9,2.1-1.4c0.2-0.2,0.5-0.3,0.8-0.5h0c-0.2,0.4-0.3,0.8-0.5,1.2c-2.6,5.8-4.9,10.4-6.4,15.1
		c-1.6,4.9-3.5,7.1-9.4,6.3c-3.7-0.5-7,0-9.6,1.3c-0.3,0.2-0.6,0.3-0.9,0.5c-2.7,1.7-4.6,4.3-5.5,7.5v0c0.1,0,0.2-0.1,0.3-0.1
		c0.1,0,0.2-0.1,0.3-0.1c0.1,0,0.1,0,0.2-0.1c0.3-0.1,0.7-0.2,1-0.3c0.3-0.1,0.6-0.3,0.9-0.5c1.2-0.9,2.4-1.6,3.6-2.1
		c0.7-0.3,1.4-0.6,2.1-0.9c0.2-0.1,0.5-0.2,0.7-0.2c0.2-0.1,0.5-0.1,0.7-0.2c3.8-1,7.5-0.5,10.6,1c0.5,0.2,1,0.5,1.5,0.8
		c0.2,0.1,0.5,0.3,0.7,0.5c0.5,0.3,0.9,0.7,1.4,1c2,1.6,3.8,3.7,5.2,6c0.3,0.5,0.6,1,0.9,1.6c0,0,0,0,0,0c0.3,0.5,0.5,1.1,0.8,1.6
		c0.4,0.8,0.7,1.7,1,2.5c0.2,0.6,0.4,1.1,0.5,1.7c0.1,0.3,0.1,0.6,0.2,0.9c1,4.5,0.6,9.3-0.8,14.1c-0.9,3-2.1,5.9-3.7,8.7
		c0,0,0,0,0,0c-0.4,0.8-0.9,1.5-1.4,2.2c0,0,0,0,0,0c-0.5,0.7-1,1.5-1.5,2.2c-0.2,0.2-0.3,0.5-0.5,0.7c-0.4,0.5-0.7,0.9-1.1,1.4
		c-0.4,0.5-0.8,0.9-1.2,1.3c-1.4,1.5-2.8,2.9-4.4,4.2c-1.1,0.9-2.3,1.8-3.4,2.5c0,0,0,0,0,0c-0.5,0.3-1,0.6-1.4,0.9c0,0,0,0,0,0
		c-0.7,0.4-1.5,0.8-2.2,1.1c-1,0.5-2,0.9-3.1,1.2c-0.3,0.1-0.7,0.2-1,0.3c-0.7,0.2-1.3,0.4-2,0.5c-0.3,0.1-0.7,0.1-1,0.2
		c-4.2,0.7-8.5,0.4-12.7-1.4c-0.2-0.1-0.3-0.1-0.5-0.2c-0.3-0.1-0.6-0.2-1-0.3c-0.9-0.2-1.9-0.3-2.8-0.4c-0.4,0-0.8,0-1.2-0.1
		c-0.2,0-0.4,0-0.6,0c-0.7,0-1.4-0.1-2.1-0.2h0c-0.2,0.8-0.4,1.6-0.6,2.5c0.7,0.3,1.4,0.6,2.1,0.9h0c1.4,0.6,2.8,1.2,4.2,1.8
		c3.5,1.5,7.2,3.1,11.1,4.8c-0.4,0.7-0.8,1.4-1.2,2c-1.1,2-2.2,4-3.4,5.8c-6.2,9.7-13.2,18.4-21,26.2c-2.3,2.3-4.7,4.6-7.2,6.7
		c-2.5,2.2-5,4.2-7.6,6.2c-2.6,2-5.2,3.9-7.9,5.8c-1.8,1.2-3.6,2.4-5.5,3.6c-6.4,4-13.1,7.5-20.1,10.7c-1.4,0.6-2.8,1.2-4.2,1.8
		c-0.7,0.3-1.4,0.6-2.1,0.9c-2.1,0.9-4.3,1.7-6.5,2.5c-2.2,0.8-4.4,1.6-6.6,2.3c-0.7,0.2-1.5,0.5-2.2,0.7c-1.5,0.5-2.9,0.9-4.4,1.4
		s-2.9,0.9-4.4,1.3c-1.5,0.4-2.9,0.8-4.4,1.2c-3.6,1-7.3,1.8-10.9,2.5c-1.5,0.3-2.9,0.6-4.4,0.8c-44.7,8.1-87.9,0-128.3-28.3
		c-2.5-1.7-4.9-3.5-7.2-5.3c-0.5-0.4-0.9-0.8-1.4-1.1c-3.5-2.9-6.9-5.9-10-9.1c-0.9-0.9-1.8-1.9-2.7-2.8c-0.9-1-1.8-1.9-2.6-2.9
		c-0.7-0.8-1.3-1.6-2-2.4c-1-1.2-1.9-2.4-2.9-3.7c-0.9-1.2-1.8-2.5-2.7-3.8c0,0,0,0,0,0c-0.6-0.8-1.1-1.7-1.7-2.6
		c-0.6-0.9-1.1-1.7-1.6-2.6c-1.1-1.9-2.2-3.8-3.1-5.8c-1.2-2.4-2.3-4.9-3.3-7.5c-0.8-1.9-1.4-3.9-2.1-5.8c-0.2-0.7-0.4-1.3-0.6-2
		c-0.3-1.1-0.6-2.1-0.9-3.2c-0.3-1.1-0.5-2.2-0.8-3.3c0,0,0,0,0,0c-1.5-6.9-2.2-14.2-2.1-21.8c0-1.5,0.1-3.1,0.2-4.6
		c0.1-1.6,0.2-3.2,0.4-4.8c0.1-1.3,0.3-2.7,0.5-4c0.1-0.9,0.3-1.8,0.4-2.7c1.5-8.9,3.8-17.9,6-26.6c4.7-19.5,7.8-39,5.8-59.2
		c-1.5-14.9-2.3-30-2.5-44.9c-0.1-4.2,0.1-8.3,0.6-12.4c0.1-0.4,0.1-0.8,0.1-1.2v0c0.2-1.5,0.4-3.1,0.8-4.6c0.1-0.4,0.1-0.8,0.2-1.1
		c0.2-1.1,0.5-2.3,0.8-3.4c0.3-1.1,0.6-2.3,1-3.4c0.1-0.4,0.2-0.8,0.4-1.1c1.2-3.3,2.7-6.6,4.6-9.8c0.2-0.4,0.4-0.7,0.6-1
		c-4.9,19.3-7.3,38.8-5.7,58.4c3.4-14,6.8-28.1,10.3-42.4c0.6-2.6,1.3-5.2,1.9-7.9c0.6-2.4,1.2-4.9,1.8-7.4c0.4-1.5,0.7-3,1.1-4.5v0
		c-0.1,0.1-0.2,0.2-0.3,0.2c-1.4,1-2.1,1.6-3,2.3c-0.1,0.1-0.3,0.2-0.5,0.4v0c1.3-6.2,3.8-11.1,7.2-15.3c0.5-0.7,1.1-1.3,1.6-1.9
		c0.6-0.7,1.3-1.4,2-2.1c0.1-0.1,0.2-0.2,0.3-0.3c0.5-0.5,1-0.9,1.5-1.4c0.3-0.3,0.6-0.6,1-0.8c2-1.7,4.1-3.3,6.2-4.9
		c0.7-0.5,1.5-1,2.2-1.6c4.8-3.4,9.8-6.7,14.3-10.7c-13.1,3.4-25.4,11.2-35,20.9c-20.3,20.5-25.9,45.8-25.4,73.6
		c0.3,22.7,0.3,45.5-1.1,68.1c-0.4,7-1.8,13.9-3.2,20.8c-0.4,1.7-0.7,3.5-1.1,5.2c-0.4,1.9-0.8,3.8-1.1,5.7
		c-0.2,0.8-0.3,1.6-0.5,2.5c-0.5,2.5-0.9,5-1.2,7.5c-4.9,38.6,5.6,72.7,32.3,101c0.8,0.8,1.6,1.7,2.4,2.5c0.8,0.8,1.6,1.6,2.4,2.4h0
		c0.8,0.8,1.6,1.5,2.5,2.3c0.4,0.4,0.8,0.7,1.3,1.1c0.8,0.7,1.7,1.4,2.5,2.2h0c1.1,0.9,2.1,1.7,3.2,2.6c0,0,0,0,0,0
		c1.1,0.8,2.2,1.6,3.3,2.4h0c0.9,0.6,1.8,1.2,2.7,1.8c0.5,0.3,0.9,0.6,1.4,0.9c1.4,0.9,2.7,1.7,4.1,2.6h0c3.5,2.1,7.2,4,10.9,5.7
		c0.7,0.3,1.4,0.6,2.1,1c3.4,1.5,6.8,2.8,10.3,4.1c3,1.1,6.1,2,9.2,2.9c2.1,0.6,4.2,1.1,6.3,1.6c2.1,0.5,4.2,1,6.4,1.4
		c4.3,0.8,8.6,1.5,13.1,2.1c3.3,0.4,6.6,0.8,10,1.1c1.1,0.1,2.2,0.2,3.4,0.3c0.4,0,0.8,0.1,1.2,0.1c1,0.1,2.1,0.2,3.4,0.4
		c0.8,0.1,1.5,0.2,2.4,0.3c-0.4,1-0.8,2-1.2,2.9c-0.2,0.6-0.5,1.2-0.7,1.8c-0.2,0.5-0.4,1-0.6,1.5c-1.1,2.7-2.1,5.1-3.4,7.4
		c-0.3,0.5-0.7,1-1.1,1.4c-0.1,0.1-0.2,0.2-0.3,0.3c-1.3,1.1-2.9,2-4.2,3.1h0c-0.2-0.2-0.4-0.5-0.6-0.7s-0.4-0.5-0.6-0.8
		c-0.4-0.5-0.8-1-1.2-1.5c-0.9-1.1-1.8-2.2-2.9-3.6c-3,0.2-7,0.5-11,0.9c-6.3,0.7-12.6,1.5-18.9,2.3c-7.2,0.9-14.5,1.8-21.7,2.5
		c-3.2,0.3-6.5,0.5-9.7,0.7c-36.9,2-72.8-1.7-107.2-17.5c-6.4-2.9-11.7-6-15.7-10.1c-0.5-0.5-1-1-1.4-1.6c-0.2-0.3-0.4-0.5-0.7-0.8
		c-0.7-0.8-1.3-1.7-1.8-2.7c-0.1-0.2-0.3-0.5-0.4-0.7c-0.3-0.5-0.5-1-0.8-1.5c-0.4-0.8-0.7-1.6-1-2.4c-0.2-0.6-0.4-1.1-0.6-1.7
		c-0.5-1.5-0.9-3.2-1.2-5c-0.1-0.7-0.3-1.5-0.5-2.2c-0.1-0.2-0.1-0.5-0.2-0.7c-0.1-0.3-0.2-0.7-0.4-1c-0.9-2.2-2.1-4.4-3.5-6.5
		c-1-1.5-2.1-2.9-3.1-4.3c-1.6-2-6.3-3.2-8.6-2.3c-1.1,0.4-2.3,1.6-3.1,3c-0.4,0.7-0.8,1.5-1.1,2.2c-0.1,0.2-0.1,0.4-0.2,0.6
		c-0.1,0.4-0.2,0.8-0.2,1.1c0,0.2,0,0.3-0.1,0.5c-0.3,4.6,1,9.3,1.9,13.8c0.7,3.3,1.8,6.6,2.7,9.9c-0.4,0.4-0.9,0.9-1.3,1.3
		c-1.1-0.6-2.1-1.3-3.2-1.9c-2.1-1.3-4.3-2.6-6.4-3.8c-1.1-0.6-2.1-1.3-3.2-1.9c-5.7-3.3-11-7.4-17.1-9.4c-2.7-0.9-8.8,0.8-10.3,2.3
		c-0.1,0-0.1,0.1-0.1,0.1c-0.1,0.1-0.2,0.3-0.2,0.4c-1,5.5-3.9,8.9-7,13c-2,2.7-0.4,8.1-0.4,10.7c-0.7,0.4-1.5,0.8-2.2,1.2
		c-0.5,0.2-1,0.5-1.5,0.8s-1,0.5-1.5,0.7c-1.3,0.7-2.6,1.3-3.5,2.1c-0.6,0.5-1,1.1-1.3,1.7c-2.1,5.2-0.3,8.7,2.6,11.7
		c0.4,0.4,0.8,0.8,1.3,1.2c0.3,0.3,0.6,0.5,0.9,0.8c0.4,0.4,0.9,0.8,1.4,1.2c0.3,0.3,0.6,0.5,0.9,0.8c1.1,0.9,2.2,1.8,3.1,2.7
		c-0.4,0.3-0.8,0.7-1.2,1.1c-0.2,0.2-0.4,0.3-0.6,0.5c-3.6,3.5-4.3,6.8-2.3,9.5c0.1,0.1,0.2,0.2,0.3,0.4c0.2,0.2,0.4,0.5,0.7,0.7
		c0.1,0.1,0.2,0.2,0.4,0.3c1.2,1,2.9,2,5.1,2.8c1.5,0.5,3,0.9,4.6,1.3c0.5,0.1,1,0.2,1.5,0.4c7.5,1.9,15.1,3.7,22.6,5.6
		c2.3,0.6,4.5,1.1,6.8,1.7c2.2,0.6,4.5,1.2,6.7,1.8c0.4,0.1,0.9,0.2,1.3,0.4h0c0.3,0.1,0.6,0.2,0.9,0.4c1.2,0.5,2.4,1.2,3.2,2.1
		c0.3,0.3,0.5,0.6,0.6,1c0.1,0.2,0.1,0.4,0.2,0.7c0.1,0.3,0.2,0.7,0.4,1c0.1,0.3,0.3,0.6,0.4,0.9c2.7,5.6,7.4,8.9,12.7,11.9
		c17.5,10,35.7,17.2,54.6,22.3c2.4,0.6,4.7,1.2,7.1,1.8c4.8,1.1,9.5,2.1,14.4,2.9c3.6,0.6,7.3,1.2,10.9,1.7
		c8.5,1.2,17.2,1.9,25.9,2.3c5.8,0.3,11.5-0.4,18.5-0.8c-3.7,16.5-7.3,32.6-10.9,48.7c-2.2,9.7-4.3,19.4-6.5,29.1
		c-0.2,0-0.6-0.1-1-0.2c-0.2,0-0.3-0.1-0.5-0.1c-0.8-0.2-1.8-0.3-2.8-0.6c-49.1-12.1-95,30.9-83.8,80.2c1.3,5.5,2.8,10.8,4.5,16
		c0.5,1.5,1,2.9,1.6,4.3c1.3,3.6,2.8,7,4.4,10.4c0.5,1,1,2,1.5,3c0.5,1,1,2,1.5,2.9c0,0,0,0,0,0c0.7,1.3,1.4,2.5,2.1,3.8
		c0.4,0.6,0.7,1.3,1.1,1.9c1.1,1.8,2.3,3.7,3.5,5.4c0.4,0.5,0.7,1,1.1,1.5c2.5,3.6,5.2,7,8.1,10.3v0c1.9,2.1,3.8,4.2,5.9,6.2
		c15.2,15,34.6,26.1,57.7,33.5c3.4,1.1,5.7,1.9,7.1,3.1c0.1,0.1,0.2,0.2,0.3,0.2c0.1,0.1,0.2,0.2,0.2,0.2c1.8,1.8,2,4.5,1.5,9.5
		c0,0,0,0.1,0,0.1c-0.1,0.6-0.1,1.2-0.2,1.9c-0.1,0.4-0.1,0.8-0.2,1.2c-0.2,1-0.4,2.1-0.6,3.1c-0.1,0.4-0.2,0.8-0.2,1.2
		c0,0.3-0.1,0.6-0.2,0.8c0,0.3-0.1,0.6-0.1,0.9c-0.7,5.2,0.7,10.1,3.6,13.4c0.1,0.2,0.3,0.3,0.5,0.5c0.9,0.9,1.8,1.6,2.9,2.2
		c0.3,0.2,0.7,0.4,1.1,0.5c0.2,0.1,0.4,0.2,0.7,0.3c0.2,0.1,0.5,0.2,0.7,0.2c1.6,0.5,3.3,0.8,5.2,0.7c0,0,0,0,0.1,0
		c0.8,0,1.5-0.1,2.3-0.2c0.5-0.1,1.1-0.2,1.6-0.2c0.7-0.1,1.3-0.2,2-0.4c4.8-1.1,9.5-3.2,13.2-5.9c0.9-0.7,1.9-1.4,2.8-2.1
		c0.9-0.7,1.8-1.5,2.6-2.3c17-15.9,22.3-41.5,13.9-65.9c2.5,0.4,5,0.9,7.5,1.3c0.8,0.2,1.7,0.3,2.5,0.5c0,0,0,0,0,0
		c0.9,0.2,1.9,0.3,2.8,0.5c0.5,0.1,1,0.2,1.4,0.2c1.4,0.2,2.8,0.4,4.3,0.5c1.4,0.1,2.9,0.2,4.3,0.2c7.2,0.1,14.4,0.2,21.7,0.2
		c14,0.1,27.9,0.2,41.9,0c1.8,0,3.6-0.1,5.4-0.1c3.6-0.1,7.1-0.2,10.7-0.3c1.8,0,3.6-0.1,5.4-0.2c22.1-0.8,43.5-4.4,63.3-13.5
		c1.6-0.8,3.3-1.5,4.9-2.4c1.6-0.8,3.2-1.7,4.8-2.6c3.2-1.8,6.4-3.8,9.4-6c0.2-0.1,0.4-0.2,0.5-0.4c0.5-0.3,1-0.7,1.5-1
		c4.7-3.1,9.6-5.8,14.3-8.7c0.2,0.5,0.4,1,0.6,1.5s0.4,1,0.6,1.5c2.7,6.8,4.7,13.9,8.7,19.5c0.5,0.7,1,1.4,1.6,2.2
		c1.6,2.2,3.2,4.2,5,6.3c0.9,1.1,1.9,2.2,2.8,3.2c1.2,1.3,2.4,2.7,3.6,4c1.2,1.3,2.5,2.6,3.7,3.9c2,2,4,4.1,6.1,6.1
		c1.4,1.3,3.4,2.5,5.5,3.2c0.5,0.2,0.9,0.3,1.4,0.4c0.2,0.1,0.5,0.1,0.7,0.2c0.3,0,0.5,0.1,0.8,0.1c1.1,0.2,2.1,0.2,3,0.1
		c0.6-0.1,1.2-0.1,1.8-0.2c1.2-0.1,2.4-0.3,3.5-0.4s2.3-0.3,3.5-0.5c0.6-0.1,1.2-0.2,1.7-0.3c1.2-0.2,2.3-0.4,3.4-0.7
		c0.3-0.1,0.7-0.1,1-0.2c13.9-3,26.7-8.2,38.5-15.6c9.5-6,18.3-13.3,26.4-22c1.5-1.6,2.6-3.2,3.3-4.8c2.2-5,0.9-9.9-3.1-13.8
		c-0.3-0.2-0.5-0.5-0.8-0.8c-0.2-0.1-0.3-0.3-0.5-0.4c-0.3-0.2-0.6-0.5-1-0.7c-0.3-0.2-0.7-0.5-1-0.7c-0.5-0.3-1.1-0.6-1.7-1
		c-0.4-0.2-0.8-0.4-1.2-0.6c-0.8-0.4-1.6-0.7-2.5-1c-0.5-0.2-1.1-0.4-1.7-0.6c-0.3-0.1-0.6-0.2-0.8-0.3c-0.6-0.2-1.1-0.3-1.7-0.5
		c-1.4-0.4-2.6-0.8-3.8-1.2c-0.2-0.1-0.5-0.2-0.7-0.2c-0.5-0.2-0.9-0.3-1.3-0.5c-0.2-0.1-0.4-0.2-0.7-0.2c-0.4-0.2-0.8-0.3-1.2-0.5
		c-4.8-1.9-7.8-3.9-9.7-6.9c-0.2-0.2-0.3-0.5-0.5-0.8c-0.3-0.5-0.6-1.1-0.8-1.7c-0.2-0.6-0.5-1.2-0.6-1.9c-0.1-0.2-0.1-0.4-0.2-0.6
		c-0.2-0.6-0.3-1.3-0.4-1.9c0-0.2-0.1-0.5-0.1-0.7c-0.2-1.4-0.4-3-0.6-4.7c-0.1-0.8-0.1-1.8-0.2-2.7c0-0.6-0.1-1.3-0.1-2
		c-0.2-4.2-0.3-8.3-0.5-12.5c0-1.4-0.1-2.8-0.1-4.2c-0.3-9.2-0.5-18.5-1.1-27.7c-0.8-11.7-4.9-21.1-12.1-28.2
		c-1.1-1.1-2.2-2.1-3.4-3.1c-0.8-0.7-1.7-1.3-2.5-1.9c-0.8-0.5-1.5-1-2.3-1.5c-2.4-1.5-5-2.8-7.8-4c-2.3-1-4.6-1.8-7-2.5
		c0,0,0,0,0,0c-8.3-2.4-16.8-3.3-25.3-2.9c-0.2,0-0.4,0-0.6,0c-1.1,0-2.3,0.1-3.4,0.2c-0.3,0-0.5,0-0.8,0.1
		c-1.2,0.1-2.3,0.2-3.5,0.4c-1.5,0.2-2.9,0.4-4.4,0.7c-1.1,0.2-2.2,0.4-3.3,0.6c-1.3,0.3-2.6,0.5-3.9,0.8c-0.2,0-0.4,0.1-0.6,0.1
		c-0.9,0.2-1.8,0.4-2.7,0.7c-1.3,0.3-2.5,0.7-3.8,1c-3.2,0.8-6.3,1.7-9.5,2.5h0c-0.1-1.1-0.2-2.1-0.4-3.2c-0.6-5.3-1.3-10.5-2-15.8
		c-0.3-2.1-0.6-4.2-0.9-6.3c-0.3-2.1-0.6-4.2-1-6.3c-0.2-1-0.3-2.1-0.5-3.1c-0.5-3.1-1.1-6.2-1.7-9.3c-0.8-4.2-1.6-8.3-2.6-12.4
		c-0.5-2-1-4.1-1.5-6.1c-0.5-2-1-4.1-1.6-6.1c-0.6-2-1.2-4-1.8-6.1c-0.6-2-1.2-4-1.9-6c-0.7-2-1.4-4-2.1-6c-1.1-3-2.3-6-3.5-8.9
		c-0.4-1-0.8-2-1.3-2.9c0.6-0.5,1-0.8,1.3-1c0.1-0.1,0.2-0.2,0.3-0.2c0,0,0.1,0,0.1,0c0,0,0,0,0.1,0c0.7-0.2,1.4-0.4,2-0.5
		c0.3-0.1,0.7-0.2,1-0.2c0.3-0.1,0.7-0.1,1-0.2c1.4-0.3,2.8-0.6,4.2-0.9c4.2-0.9,8.4-1.9,12.5-3c2.8-0.7,5.5-1.5,8.2-2.3
		c2.7-0.8,5.4-1.7,8.1-2.5c1-0.3,2-0.7,3-1c3-1,6-2.1,8.9-3.2c10.5-4,20.6-8.7,30.4-14.1c2-1.1,4-2.2,5.9-3.4
		c13.7-8.1,26.7-17.6,39-28.7c0.3-0.3,0.7-0.5,1-0.7c0.1-0.1,0.2-0.1,0.4-0.2c0,0,0,0,0,0c0.5-0.2,1.1-0.4,1.6-0.6
		c11-4,22.1-7.9,33.1-11.9c3.7-1.3,7.3-2.7,11-4c0.5-0.2,0.9-0.4,1.4-0.6c1.4-0.7,2.7-1.7,3.8-2.8c0.5-0.5,1-1,1.5-1.5
		c3.8-4.1,3.8-7.8,0-11.7c-0.3-0.3-0.6-0.6-0.9-0.9c-0.2-0.2-0.3-0.3-0.5-0.4c2.6-1.9,4.9-4,6.3-6.5c0.1-0.2,0.2-0.3,0.3-0.5
		c0.3-0.6,0.6-1.2,0.8-1.8c0.1-0.3,0.2-0.6,0.3-0.9c0.1-0.3,0.1-0.6,0.2-0.9c0,0,0-0.1,0-0.1c0-0.2,0.1-0.5,0.1-0.7
		c0-0.1,0-0.2,0-0.2c0-0.3,0-0.6,0-0.9C691.6,513.3,691.6,512.8,691.5,512.3z M683.7,522.4l-0.5,0.4c-1,0.7-2.1,1.2-3.2,1.7
		c-1.5,0.7-3,1.3-4.6,1.9c-1.6,0.6-3.2,1.1-4.7,1.6c-1.1,0.4-2.1,0.7-3.2,1.1c-2.2,0.8-4.3,1.8-6.5,2.8h0c0.2,0.7,0.3,1.4,0.5,2.2v0
		c6.4-0.5,12.8-1.1,19.2-1.6c0.5,0.7,0.9,1.4,1.3,2.1c-0.3,0.3-0.6,0.6-0.9,0.9c-0.6,0.6-1.2,1.2-1.7,1.9c-0.4,0.5-0.9,0.9-1.3,1.4
		c-1,1-2.1,1.9-3.4,2.5c-6.6,2.9-13.6,5-20.5,7.3c-6.4,2.2-12.8,4.4-19.9,6.8c0,0-5.5,1.9-9.7,3.3c-0.9,2.2-3,4.2-6.3,6.8
		c-30.5,24.4-65.1,39.6-102.9,48.2c-11.6,2.6-11.5,2.8-18.7-6.3c0.8,4.3,1.5,8.6,2.5,12.8c5.3,20.4,11.1,40.7,16,61.2
		c2.7,11.1,4,22.6,5.7,34c1,6.6-1.5,11-8,14.5c-23.6,12.8-42.6,31.2-60.2,51.2c-0.7,0.8-1,1.9-0.6,4.2c1.8-1.3,3.8-2.5,5.5-3.9
		c17.2-14.2,33.7-29.2,51.6-42.3c19.2-13.9,40.9-21.8,65.4-18.8c29.8,3.7,43.8,18.9,44.5,48.8c0.3,12.7-0.4,25.4,0.3,38
		c1.1,17.9,1.9,19.6,21.3,26.5c2.4,0.9,5,1.3,7.4,2.2c8.4,3.4,10.3,9.1,4.5,15.8c-4.9,5.6-10.6,10.7-16.9,14.7
		c-14.8,9.5-30.3,18-47.9,21.3c-9.1,1.7-13.1-2.4-9.2-10.7c2.6-5.6,7.5-10.9,12.7-14.3c8-5.2,17.2-8.5,25.9-12.6c3-1.4,5.9-3,10-5.1
		c-22.3-4-51.9,18.5-53.9,40.5c-15.7-14.9-31-29-30.4-52.4c0.3-14.6,1.6-29,7.5-42.7c1.1-2.5,0.2-5.9,0.2-8.9c-1-0.2-2-0.3-3.1-0.5
		c-2.7,6.7-5.3,13.5-8.7,22c-2.2-6.6-3.9-11.8-5.6-17c-1,0.2-2,0.4-3,0.6c0.8,4.7,1,9.6,2.6,14c2.9,7.8,4.1,15.4,3.7,23.9
		c-0.4,8.5-4.4,13.5-10.8,17.4c-29.2,18.1-60.5,30-95.4,30c-29.8-0.1-59.5-0.3-89.3-0.6c-16.3-0.2-29.8-5.3-35.8-22.4
		c-1.2-3.4-3.8-6.5-6-9.5c-8.9-12.2-16.6-24.8-16.1-40.8c0.1-3-1.7-6.1-2.6-9.1c-1,0.2-2.1,0.4-3.1,0.6c0.8,6.2,1.5,12.3,2.3,18.5
		c-0.5,0.4-0.9,0.8-1.4,1.1c-5.2-4.3-10.4-8.5-15.6-12.8c-0.6,0.4-1.1,0.8-1.7,1.2c0.9,2,1.3,4.5,2.8,6c4.6,4.9,10.4,9,14.3,14.3
		c6.8,9.2,12.5,19.2,18.8,28.8c5.5,8.6,12.3,16.6,16.4,25.8c3.3,7.4,3.8,16.1,5.1,24.3c0.4,2.6-0.7,5.5-0.5,8.3
		c5.5-9.9,3.3-20-0.4-30.9c6.6,1.9,8.6,6.4,9.9,11.4c4.9,20.1-8,47.8-26.4,56.9c-11.9,5.9-19.4,1.3-18.9-12c0.2-6.8,1.7-13.6,2-20.4
		c0.1-1.3-2.6-3.7-4.3-4c-48.3-9.5-77.2-41.1-94.8-84.6c-11.3-27.9-3.7-56.4,18.1-74c12.8-10.4,27.9-15,44.1-12.7
		c6.7,1,13.2,5.7,19,9.9c11.2,8,22,16.8,32.6,25.5c2.4,2,3.6,5.3,5.3,8.1c2.1,3.5,4.1,7,6.1,10.5c0.8-0.3,1.6-0.7,2.4-1
		c-1.2-4.1-2.4-8.3-4.1-14c2.9,1.6,4.5,2.9,6.2,3.4c1.9,0.6,4.1,0.4,6.1,0.6c-0.9-1.9-1.3-4.4-2.8-5.5c-7.4-5.8-14.9-11.3-22.5-16.9
		c-6.8-5-13.9-9.7-20.4-15.1c-1.8-1.5-3.4-5.2-2.9-7.4c3.9-21.4,8-42.7,12.4-64c3.3-16.2,3.9-28,0.2-38.8c-1,5.8-1.4,9.8-2.5,13.5
		c-0.5,1.7-2.8,4.1-4.1,4c-27.5-2.1-55.5-1.3-82-11c-14-5.2-27.7-11.4-41.3-17.7c-0.9-0.4-1.7-1.2-2.5-2.1c0,0-1,0.8-4.1-1.3
		c-2.6-1.8-6.7-5.8-12.8-14.2v0h0c-2.1-0.5-4.2-0.9-6.3-1.4c-4.2-0.9-8.3-1.8-12.4-2.7c-2.1-0.5-4.1-0.9-6.2-1.4
		c-4.1-0.9-8.2-1.8-12.3-2.7s-8.1-1.8-12.2-2.7c0.1-0.8,0.2-1.6,0.3-2.4c0-0.1,0-0.2,0.1-0.4c0.1-0.1,0.3-0.2,0.4-0.3
		c0.4-0.3,0.9-0.6,1.3-0.8c0.3-0.2,0.6-0.3,0.9-0.4c0.2-0.1,0.3-0.1,0.4-0.2c0.3-0.1,0.6-0.2,0.9-0.3h0c0.4-0.1,0.9-0.2,1.3-0.3
		c0,0,0,0,0,0c0.3,0,0.5-0.1,0.8-0.1c0.1,0,0.2,0,0.2,0c0.1,0,0.2,0,0.2,0c0.2,0,0.3,0,0.4,0c1.2,0,2.3,0.1,3.5,0.3
		c0.1,0,0.2,0,0.3,0c1.1,0.2,2.2,0.5,3.2,0.7c1,0.2,1.9,0.5,2.9,0.7c0.6,0.1,1.2,0.2,1.8,0.3c1.6,0.2,3.2,0.3,4.7,0
		c0.2-0.7,0.5-1.3,0.7-2c-2.1-1-4.2-2-6.3-2.9c-5.6-2.3-11.4-4.2-16.8-6.9c-0.1-0.1-0.3-0.2-0.4-0.2c-0.4-0.2-0.9-0.5-1.3-0.8
		c-0.2-0.1-0.3-0.2-0.4-0.3c-0.3-0.2-0.6-0.5-0.8-0.7c-0.9-0.9-1.7-1.8-2.3-2.9c-0.2-0.3-0.3-0.6-0.4-0.9c-0.2-0.4-0.3-0.8-0.4-1.3
		v0c0-0.2-0.1-0.5-0.1-0.7c-0.2-1.9,0.3-4,1.2-5.1c1.1-1.2,4.9-1.4,6.8-0.5c1.4,0.7,2.8,1.4,4.2,2.2c1,0.6,2.1,1.1,3.1,1.7
		c1,0.6,2.1,1.2,3.1,1.8c2.1,1.2,4.1,2.4,6.2,3.5c2.1,1.2,4.4,1.9,6.6,2.9c1.1-1.2,2.1-2.4,3.2-3.7c-2-0.6-4.2-0.8-5.8-1.9
		c-2-1.4-4.1-2.8-6.1-4.2c-0.7-0.5-1.3-1-2-1.4c-1.3-1-2.6-1.9-4-2.9c-0.7-0.5-1.3-1-2-1.5c-0.7-0.5-1.3-1-2-1.5
		c-0.5-0.4-1-0.8-1.4-1.2c-2.6-2.8-2.1-6,0.7-9c0.1-0.2,0.3-0.3,0.4-0.4c0.2-0.2,0.5-0.5,0.7-0.6c0.7-0.5,1.4-0.7,2-0.6
		c0.2,0,0.4,0.1,0.6,0.2c0.4,0.2,0.8,0.5,1.2,0.8c0.1,0.1,0.2,0.2,0.3,0.3c0.1,0.1,0.2,0.2,0.3,0.3c0.2,0.2,0.4,0.4,0.5,0.6v0
		c0.3,0.3,0.5,0.6,0.8,0.9c0.2,0.2,0.3,0.3,0.5,0.5c0.7,0.6,1.4,1.2,2,1.7c2.7,2.3,5.4,4.6,8.3,6.7c0.4,0.3,0.7,0.5,1.1,0.8
		c0.7,0.5,1.5,1,2.2,1.5c0.8,0.5,1.5,1,2.3,1.5c0.4,0.2,0.8,0.5,1.2,0.7c-1.7-4.6-4.4-8.2-7.7-11.4c-0.8-0.8-1.7-1.6-2.5-2.3
		c-0.9-0.8-1.7-1.5-2.6-2.2c-1.8-1.4-3.6-2.8-5.4-4.2c6.6-9.2,7.6-9.4,15.7-3.8c0.9,0.6,1.8,1.3,2.7,1.9c0.9,0.6,1.8,1.3,2.7,1.9
		c2.5,1.7,5.1,3.3,8,4.7c0.5,0.2,1,0.5,1.6,0.7c0.3,0.1,0.5,0.2,0.8,0.3c0.5,0.2,1.1,0.4,1.7,0.6c0.6,0.2,1.1,0.4,1.7,0.5
		c0.6,0.2,1.2,0.3,1.8,0.5c1.2,0.3,2.5,0.5,3.8,0.6c-0.2-0.9-0.5-1.7-0.7-2.5c-0.7-2.5-1.4-4.8-2-7.2c-0.6-2.3-1.3-4.5-1.9-6.8
		c-0.2-0.8-0.4-1.5-0.6-2.2c-0.2-0.8-0.4-1.6-0.6-2.4c0,0,0,0,0,0c-0.1-0.5-0.2-1.1-0.3-1.6c-0.2-1-0.3-2-0.2-2.9
		c0.1-1.8,1.1-4.8,2.1-5c1.1-0.2,2.6-0.1,3.9,0.3c0.2,0.1,0.4,0.2,0.6,0.2c0,0,0,0,0,0c0.2,0.1,0.4,0.2,0.6,0.3
		c0.2,0.1,0.4,0.2,0.5,0.3c0.1,0.1,0.1,0.1,0.2,0.2c0.1,0.1,0.1,0.1,0.2,0.2c1.9,2.2,2.7,5.3,3.9,8.1c1.6,3.6,3.1,7.2,4.7,10.9
		c1.5,3.6,3.1,7.3,4.6,10.9c0.1,0.2,0.1,0.3,0.2,0.5c0,0,0,0,0,0c0.1,0.4,0.2,0.8,0.2,1.2c0.1,0.5,0.1,1,0,1.5c0.1-0.4,0.1-1,0-1.5
		c1.6,0.5,3.7,1.2,6.2,2.1c2.6,0.9,5.6,2,8.5,3.2h0c0.2,0.1,0.4,0.2,0.6,0.3c0,0,0,0,0,0c43.5,25.2,91.2,25.4,139.9,19.5
		c3-0.4,6.1-0.5,9.1-1.2c11.2-2.6,20.4-4.4,30.9,6c11.2,11.2,28.6,10.2,44.2,9.2c4.1-0.2,8.1-0.9,12.5-1.5l3.5-0.6c0,0,0,0,0-0.1
		c2.5-1,4.7-1.5,6.6-2.6c9.9-6.1,20.3-11.6,29.4-18.7c8.3-6.6,7.7-7.4,16.8-8.2c-1.1-1.8-2-3.4-2.8-4.7c17-3.8,34.3-6.2,50.6-11.7
		c26.4-8.8,52.2-19.4,78.1-29.7c3.2-1.3,5.9-1.9,8.3-1.8c2.5-1,6.7-2.1,12.6-2.4c0-0.2,0-0.3,0.1-0.5c2.8-8.6,5.8-17.2,9.1-25.7
		c0.4-1.1,1.1-2.4,1.9-3.4c0.2-0.2,0.4-0.4,0.6-0.6c0.5-0.5,1-0.9,1.6-1.2c3.3-1.6,6.9-1.3,6.4,3.8c-0.2,1.5-0.5,3.1-0.8,4.6
		c-0.1,0.5-0.2,1-0.4,1.5c-0.2,1-0.5,2-0.7,3.1c-0.1,0.5-0.2,1-0.2,1.5c0,0.5-0.1,1-0.1,1.6c0,3.8,0.3,8.9,2.7,11.2
		c3.8,3.7,7.7-0.3,10.7-3.2c4.7-4.5,9.3-9.1,14-13.6c1.6-1.5,3.2-3,4.8-4.4c0.6-0.5,1.5-1,2.4-1.5c0.3-0.1,0.5-0.2,0.8-0.3
		c0.7-0.2,1.3-0.4,1.9-0.5c0,0,0,0,0,0c0.5-0.1,1-0.1,1.3,0.1c0.1,0,0.1,0.1,0.2,0.1c0.7,0.6,1.3,1.3,1.6,1.9c0.5,1,0.6,2,0.4,3
		c-0.1,0.3-0.2,0.6-0.3,1c-0.2,0.6-0.5,1.1-1,1.7c-0.1,0.1-0.2,0.2-0.3,0.4c-0.3,0.4-0.6,0.7-1,1.1c-0.6,0.6-1.1,1.1-1.7,1.7
		c-1.7,1.7-3.4,3.4-5,5.2c-2.2,2.3-4.5,4.6-6.7,6.9c0.5,0.6,0.9,1.1,1.4,1.7c3.8-2.5,7.6-4.9,11.5-7.5c2.3-1.5,4.7-3.1,7.2-4.6h0
		c0.8,0.8,1.5,1.5,2,2.2c2.5,3.2,2.6,6-0.3,9c-0.3,0.4-0.7,0.7-1.2,1.1c-1.1,1-2.2,1.9-3.3,2.9c-1.1,1-2.2,2-3.2,3
		c-1.1,1-2.1,2.1-3.2,3.1c-1.1,1-2.1,2.1-3.2,3.1v0c0.5,0.7,0.9,1.3,1.3,2c4.7-2.1,9.3-4.6,14.2-6.1c3-0.9,8.6-1.3,9.7-0.2
		c0.1,0.1,0.1,0.1,0.2,0.2C687.6,518.5,686,520.7,683.7,522.4z M632.5,553.4c-0.2-0.3-0.5-0.6-0.6-0.9
		C632.1,552.8,632.3,553.1,632.5,553.4z"/>
	<path class="st0" d="M314.6,439.7c2.5,5.3,4.5,8.7,5.7,12.4c1.2,4,1.3,8.4,2.4,12.4c1.5,5.2,3.2,10.3,5.5,15.2
		c5.1,10.7,14,14.7,25.5,11.8c10.2-2.5,18-8.6,21.6-18.4c2.6-7.1,3.4-14.9,5-22.4c0.5-2.2,0.6-4.6,1-6.8c0.5-2.4,1-4.8,1.6-7.2
		c-2.3,1.1-5,1.9-7,3.5c-14.2,11.8-29.7,14-46.6,6.9C324.9,445.1,320.6,442.7,314.6,439.7z"/>
	<path class="st0" d="M368,169.1c-23.6,2.7-43.9,10.6-62.5,22.9c-3.8,2.5-5.7,8.1-8,12.6c-1.5,2.9-1.5,6.6-3.1,9.4
		c-5,9.3-8.4,18.9-6.9,29.6c0.7,4.7,2.1,9.4,9,7.6c-8.5-17.9,2-32,9.3-47.3c-2.2,0.3-3.7,0.5-5.2,0.7c-0.3-0.6-0.6-1.1-1-1.7
		c4.4-3.7,8.2-8.7,13.2-10.9c14.9-6.8,30.1-12.8,45.5-18.4c3.5-1.3,8.1,0.5,12.5,0.9c-1.1-6.1-2.4-13.5-3.7-21
		c0.5-0.2,1.1-0.4,1.6-0.6c3.1,7.1,6.2,14.2,9.4,21.3c0.8-0.2,1.6-0.4,2.5-0.6c1.7-12.7,1-26.1,9.4-36.8c0.7,0.1,1.4,0.1,2.1,0.2
		c0,11.6,0,23.2,0,36.6c7.6-10.6,6.8-35.2-0.3-44.4c-9.6,8.1-11.5,20-14.6,32.9c-5.3-11.6-9.7-21.5-14.2-31.3
		c-0.7,0.3-1.5,0.5-2.2,0.8C363.2,144.2,365.6,156.7,368,169.1z"/>
	<path class="st0" d="M259,380.8c10.8-14.8,22.2-15.7,31.9-3.2c2,2.6,3.6,5.5,5.6,8.1c0.9,1.1,2.3,1.8,3.5,2.6
		c0.6-0.3,1.3-0.6,2-0.9c-0.7-3.1-0.9-6.5-2.2-9.4c-4.5-9.8-15.2-16.2-24.8-15.3c-9,0.9-20.5,10.5-22.9,19.6
		c-0.5,1.7,0.3,3.8,0.6,5.7c1.9-0.6,4.4-0.6,5.8-1.9c10.3-9.2,18.2-9.8,29.7-2.2c1.3,0.9,2.8,1.5,5.3,2.8
		C286.9,374.4,278.9,373.2,259,380.8z"/>
	<path class="st0" d="M362.8,240.2c1.6,4.8,1.6,11.4,9.5,11.2c10.6-0.3,22.1-14.6,20.4-25.4c-3.1,5-5.5,10.4-9.4,14.6
		c-2.7,2.8-7.4,3.8-11.1,5.6c-1.8-4-3.9-7.9-5.2-12.1c-0.8-2.5-0.1-5.4-0.1-8.1c-0.6-0.1-1.3-0.2-1.9-0.2c-1.2,2.4-2.3,4.9-3.6,7.4
		c-6.4,12.4-14,24-26.5,31.1c-3.3,1.9-7.7,3.4-11.1,2.7c-2.1-0.4-3.3-5.4-4.8-7.9c-1.5,6.7,1.8,11.9,8.6,10.6
		c6.1-1.1,12.6-4.1,17.1-8.2C351.5,255.2,356.8,247.3,362.8,240.2z"/>
	<path class="st0" d="M400,321.8c2.5,0,3.7,0.3,4.7,0c12.9-5.2,23.7-0.6,33.8,7.3c2.4,1.9,4.7,4.1,7.4,5.3c2.1,1,4.8,0.6,7.1,0.9
		c-0.4-2.3-0.1-5.3-1.4-6.9c-9.6-10.8-21.4-17.4-36.3-15.8C409.4,313.3,404.2,315.7,400,321.8z"/>
	<path class="st0" d="M505.9,306c-3-2.2-4.7-3.5-6.6-4.8c-8.9-6-18.1-11.7-26.8-18.1c-21.8-16-38.2-35.9-44-63.1
		c-1-4.5-1.3-9-2-13.6C422.9,243.8,465.5,297.6,505.9,306z"/>
	<path class="st0" d="M541.4,371.5c16.5-15.3,19.2-68.8,4.9-88.9C556.4,312.8,550.9,342.3,541.4,371.5z"/>
	<path class="st0" d="M396.7,395.1c6.8-10.2,13.5-17.7,25.1-18.2c12-0.5,17.7,9.4,25.7,16.5c1-7.8-2.6-13.9-9.7-17.9
		c-11.9-6.7-23.6-5.6-35,3.8C398.8,382.6,393.7,385.9,396.7,395.1z"/>
	<path class="st0" d="M255.3,329.2c0.8,0.6,1.7,1.2,2.5,1.8c8.1-12.6,22.3-13,35.8-17.6c-12.8-7.4-30.4-3.5-36.6,6.9
		C255.5,322.7,255.8,326.2,255.3,329.2z"/>
	<path class="st0" d="M337.1,393.8c-5.4-6.8-13.3-7.4-20.9-2.3c-8.6,5.8-11.2,16.3-6.3,25.3c4.8,8.8,15,13.5,23.2,9.7
		c-11.6-4.1-24.9-7.2-20.8-23.2C315.7,390.8,326.6,392.2,337.1,393.8z"/>
	<path class="st0" d="M478.5,275c-23.6-14.4-27.3-23.7-29-72.6c-5.4,16.1,0,49,10.2,61.8C464.4,269.9,470,274.1,478.5,275z"/>
	<path class="st0" d="M473.1,294.9c-0.5,0.5-0.9,1-1.4,1.4c15.5,14.4,31,28.8,46.5,43.2C507.7,319.9,488.5,309.4,473.1,294.9z"/>
	<path class="st0" d="M530.3,421.2c0.4,0.4,0.8,0.7,1.2,1c1.6-1.3,2.9-3.3,4.8-3.9c2.9-0.9,7-2.2,8.8-0.8c1.9,1.4,3.3,6.7,2.1,8.5
		c-3.1,4.9-7.4,9.1-11.8,13c-1.9,1.8-5,2.3-9,4c14.3,0.5,25.6-8.8,25-19.8c-0.2-3.2-2.2-8-4.7-9.1c-2.9-1.4-7.5-0.2-10.9,1.1
		C533.5,416.2,532.1,419.2,530.3,421.2z"/>
	<path class="st0" d="M310.7,218.6c-5.9,3.7-7.8,26.5,0,34.9C310.7,241.8,310.7,230.1,310.7,218.6z"/>
	<path class="st0" d="M403.3,391.6c11.1-8.6,22.9-7.9,35-2.9C429.1,378.1,411.4,379.6,403.3,391.6z"/>
	<path class="st0" d="M486.1,272.1c-6.8-14.3-13.9-29.3-19.8-41.7C466.6,242.8,476.9,265.3,486.1,272.1z"/>
	<path class="st0" d="M408.7,212.8c-5.3,14.3,1,30.3,14.6,32.5C411.2,236.4,408,225.4,408.7,212.8z"/>
	<path class="st0" d="M495.3,323c10,10.1,19.5,20.4,23.4,34.6C518.2,341.1,507.1,331.7,495.3,323z"/>
	<path class="st0" d="M538.4,355.3c3.8-10.7,1.9-31.1-2.8-37.1C536.5,330.1,537.4,342,538.4,355.3z"/>
	<path class="st0" d="M397.7,215.6c-1,9.3-2.9,18.8,3.7,27.1c0.7,0.9,3.1,0.6,4.8,0.8C397.6,235.1,400.5,224.6,397.7,215.6z"/>
	<path class="st0" d="M512.9,262.1c-6-11.9-11.2-22.2-15.8-31.4C498.2,241.6,502.4,252.6,512.9,262.1z"/>
	<path class="st0" d="M277.3,253.4c0-7.8,0-15.9,0-23.5C270.9,236.7,270.9,247.1,277.3,253.4z"/>
	<path class="st0" d="M485.6,246.9c0.6,9.2,8.3,19.3,14.5,19.2C495.3,259.7,490.1,252.8,485.6,246.9z"/>
	<path class="st0" d="M517.1,363.9c1,5.8,2,12,3,18.2C523.8,375.6,522.7,369.3,517.1,363.9z"/>
	<path class="st0" d="M691.5,512.3c-0.1-1.4-0.5-2.8-1.1-4.4c-1.1,0.2-2.1,0.4-3.2,0.6c-0.5,0.1-1,0.2-1.6,0.3
		c-1,0.2-1.9,0.4-2.9,0.5c-1.7,0.3-3.4,0.6-5.1,1c2.7-4.8,6.2-8.7,7.2-13.3c0.6-2.7,0-4.3-1.1-5.3c-0.1-0.1-0.2-0.2-0.3-0.2
		c-0.1-0.1-0.2-0.1-0.3-0.2c-0.2-0.1-0.4-0.2-0.7-0.4c-0.1-0.1-0.2-0.1-0.3-0.1c-0.2-0.1-0.5-0.2-0.7-0.3s-0.5-0.1-0.8-0.2
		c-0.7-0.2-1.3-0.3-1.9-0.4c-0.4-0.1-0.8-0.2-1.1-0.3c-0.7-0.2-1.4-0.4-1.9-0.8c0.1-3.1,0.5-6.7-0.2-9.4c-0.1-0.5-0.3-0.9-0.5-1.3
		c0,0,0,0,0,0c-0.2-0.4-0.5-0.8-0.8-1.1h0c-0.1-0.1-0.2-0.2-0.3-0.3c-4.1-4-9.2-0.9-12.8,2.3c-0.7,0.6-1.5,1.3-2.2,1.9
		c-2.1,2-4.2,4-6.3,6c-1.4,1.4-2.7,2.7-4.1,4.1c-1.4,1.4-2.8,2.7-4.2,4c-0.2,0.2-0.3,0.3-0.5,0.5c-2.5,2.3-5.2,4.5-9.1,7.8
		c-0.8-5.1-1.7-8.2-1.8-11.3c0-2.1,0.2-4.3,0.4-6.4c0.1-1,0.2-1.9,0.2-2.9c0.1-2.1,0.2-4.1-0.1-6.2c-0.1-0.6-0.3-1.2-0.5-1.9
		c-0.1-0.2-0.2-0.4-0.3-0.6c-0.2-0.4-0.4-0.8-0.6-1.2c-1.1-2-2.7-3.9-3.9-5.9c-2.8,2-7.1,3.3-8.3,6c-0.2,0.5-0.5,1.1-0.7,1.6
		c-0.2,0.6-0.5,1.2-0.7,1.9c-0.2,0.5-0.4,1.1-0.5,1.6c-0.1,0.4-0.3,0.9-0.4,1.3c-0.4,1.3-0.8,2.6-1.1,3.9c-0.3,1.2-0.6,2.4-1,3.6
		c-0.2,0.7-0.4,1.4-0.5,2c-0.2,0.6-0.3,1.3-0.5,1.9c-0.3,1-0.6,2-0.9,3c-0.4,1.4-0.9,2.7-1.4,4c-0.6,1.6-1.2,3.1-1.9,4.7
		c-0.5,1.1-0.9,2.3-1.4,3.5c-0.2,0.6-0.5,1.1-0.7,1.7c-0.5-0.8-1.1-1.7-1.6-2.5c-5.3,0.6-11.3-0.2-15.8,2.1
		c-38.6,19.8-80,30.7-122,40.1c-5.2,1.2-11,4.6-15.1-0.8c-0.3-0.3-0.5-0.7-0.8-1.1c-0.2-0.4-0.5-0.8-0.7-1.3c-0.1-0.3-0.3-0.7-0.5-1
		c-0.2-0.5-0.4-1.1-0.6-1.7c-0.1-0.2-0.1-0.4-0.2-0.6c-0.1,0.4-0.1,0.7-0.2,1.1s-0.1,0.7-0.2,1c-0.4,2.2-0.6,3.5-0.7,4.6
		c0,0.2,0,0.4-0.1,0.6c-0.1,1.6-0.4,3.2-0.7,4.7c-0.5,2.3-1.3,4.4-2.4,6.5c-0.4,0.7-0.8,1.3-1.2,2c-0.5,0.7-1,1.3-1.5,1.9
		c-0.3,0.3-0.6,0.6-0.9,0.9c-0.3,0.3-0.6,0.6-0.9,0.9c-22,19.8-47.4,25.5-75.8,18.6c-0.9-0.2-1.8-0.5-2.6-0.8
		c-0.6-0.2-1.1-0.5-1.7-0.7c-0.6-0.2-1.1-0.5-1.7-0.8c-0.6-0.3-1.1-0.6-1.6-0.9c-1.1-0.6-2.2-1.2-3.2-1.8c-0.5-0.3-1-0.6-1.6-0.8
		c-0.3-0.1-0.5-0.3-0.8-0.4c3.1-5.8,7-10.3,7.7-15.2c0.6-4.2,2.1-6.2,4.3-7.2c1.8-0.8,4-0.9,6.5-0.9c2.8-0.1,5.5-0.2,8.3-0.3
		c2.8-0.2,5.5-0.4,8.2-0.6s5.5-0.5,8.2-0.9c2.7-0.3,5.4-0.8,8.1-1.2c10.8-1.8,21.4-4.4,31.7-7.7c0.9-0.3,1.9-0.6,2.8-0.9
		c1.9-0.6,3.8-1.3,5.6-2s3.7-1.4,5.6-2.2c1.9-0.8,3.7-1.5,5.5-2.3c0.9-0.4,1.8-0.8,2.8-1.2c1.2-0.5,2.4-1.1,3.6-1.7
		c0.3-0.1,0.5-0.2,0.8-0.3c0.4-0.2,0.7-0.3,1.1-0.5c1-0.5,1.9-0.9,2.9-1.4c1.9-1,3.8-1.9,5.7-2.9c3.8-2,7.5-4.1,11.1-6.3
		c0.9-0.5,1.8-1.1,2.7-1.7c2-1.3,4-2.6,5.9-3.9c0.6-0.5,1.3-0.9,1.9-1.3c17.8-12.7,32.7-28.7,42.7-49.9c0.2-0.4,0.4-0.7,0.7-1
		c0.4-0.4,0.9-0.8,1.4-1.2c0.2-0.1,0.4-0.3,0.7-0.5c0.1-0.1,0.2-0.1,0.3-0.2c0.2-0.1,0.4-0.2,0.6-0.4c0.3-0.2,0.5-0.4,0.8-0.5
		c0.4-0.3,0.8-0.6,1.1-0.9c3.9-3.5,8.1-6.7,12.1-10.1c0.7-0.6,1.3-1.2,1.9-1.7c0.6-0.6,1.2-1.2,1.8-1.8c1.6-1.6,3.1-3.4,4.4-5.2
		c9.4-13.4,7.9-31.2-2.3-41.7c-3-3-3.4-5.1-2.4-7.9c0.2-0.4,0.3-0.9,0.5-1.3c0.1-0.2,0.2-0.5,0.3-0.7c0.1-0.2,0.2-0.5,0.4-0.7
		c0.5-1,1-1.9,1.5-2.9c0.8-1.5,1.5-2.9,2.3-4.4c0,0,0,0,0,0c0.5-1,1-1.9,1.5-2.9c0,0,0,0,0,0c0.5-1,1-2,1.4-2.9
		c2.4-4.9,4.5-9.9,6.2-15c0.2-0.5,0.3-1,0.5-1.5c0,0,0,0,0,0c0.3-1,0.6-2,0.9-3.1c0.4-1.6,0.8-3.1,1.1-4.7c0.1-0.5,0.2-1.1,0.3-1.6
		c0.1-0.5,0.2-1.1,0.2-1.6c0.1-0.7,0.2-1.3,0.2-2s0.1-1.3,0.2-2c0-0.7,0.1-1.4,0.1-2c0-0.7,0-1.5,0-2.2c0-5.3-0.1-10.7-0.3-16
		c-0.2-5.3-0.5-10.7-0.9-16c-0.3-4.7-0.7-9.5-1.1-14.2c-0.2-2.4-0.4-4.7-0.7-7.1c-0.1-1.2-0.2-2.4-0.3-3.5
		c-0.4-3.7-0.9-7.3-1.6-10.9c-0.5-2.7-1.1-5.3-1.8-7.8c-0.2-0.9-0.5-1.7-0.7-2.5c-2.8-9.3-6.7-17.9-12-25.8c-1.4-2.1-3-4.3-4.6-6.3
		c-0.5-0.7-1.1-1.4-1.7-2c-1.1-1.3-2.3-2.7-3.5-4c-0.6-0.6-1.2-1.3-1.9-1.9c-3.8-3.8-8-7.4-12.5-10.8
		c-19.8-14.5-41.2-26.2-64.6-33.7c-2.3-0.8-4.7-1.4-7-2.1c-1.6-0.4-3.1-0.8-4.7-1.2c0,0,0,0,0,0c-0.6-0.1-1.2-0.3-1.8-0.4
		c-1.2-0.2-2.4-0.5-3.5-0.7c-0.6-0.1-1.2-0.2-1.8-0.3c-15.5-2.6-31.2-2.2-47,2.3c-0.6,0.2-1.1,0.4-1.7,0.6s-1.1,0.4-1.7,0.6
		c0,0,0,0,0,0c-0.8,0.3-1.7,0.7-2.5,1c0,0,0,0,0,0c-0.3,0.1-0.5,0.2-0.8,0.3c0,0,0,0,0,0c0.2,0.1,0.4,0.2,0.6,0.3s0.4,0.2,0.5,0.2
		c0.4,0.1,0.7,0.2,1,0.3c1.3,0.3,2.4,0.2,3.6,0.1c13.6-0.4,27.2-2.2,40.7-1.1c20.5,1.7,38.8,8.5,56,18c1.4,0.7,2.7,1.5,4,2.3
		c1.3,0.8,2.7,1.6,4,2.4h0c1.8,1.1,3.5,2.2,5.3,3.3c3.5,2.2,7,4.6,10.4,7c1.7,1.2,3.4,2.4,5.1,3.7c1.7,1.2,3.4,2.5,5.1,3.7
		c3.7,2.8,7.1,5.7,10.1,8.8c1,1,2,2.1,3,3.2c2.4,2.7,4.6,5.5,6.6,8.4c0.8,1.2,1.6,2.4,2.3,3.6c1.8,3,3.5,6.2,5,9.4
		c0.6,1.3,1.1,2.6,1.7,3.9c0.5,1.3,1,2.7,1.5,4c0,0,0,0,0,0c0.2,0.5,0.3,1,0.5,1.5c0.5,1.5,1,3.1,1.4,4.7c0.9,3.5,1.7,7.2,2.3,10.9
		c0.1,0.8,0.2,1.6,0.4,2.5c0.5,3.3,0.9,6.6,1.3,9.9c0.5,4.1,0.9,8.3,1.2,12.5c0.3,3.3,0.5,6.7,0.7,10c0.1,1.7,0.2,3.3,0.2,5
		c0.9,20.1-2.4,39.3-15.1,55.9c-0.1,0.1-0.2,0.3-0.2,0.5c0,0.2-0.1,0.5-0.1,0.9c0,0.1,0,0.2,0,0.4c0,0.5,0,1.1-0.1,1.8
		c2.1-1.4,3.8-2.6,5.8-3.9c0.7-0.5,1.4-0.9,2.1-1.4c0.2-0.2,0.5-0.3,0.8-0.5c-0.2,0.4-0.3,0.8-0.5,1.2c-2.6,5.8-4.9,10.4-6.4,15.1
		c-1.6,4.9-3.5,7.1-9.4,6.3c-3.7-0.5-7,0-9.6,1.3c-0.3,0.2-0.6,0.3-0.9,0.5c-2.7,1.7-4.6,4.3-5.5,7.5c0.1,0,0.2-0.1,0.3-0.1
		c0.1,0,0.2-0.1,0.3-0.1c0.1,0,0.1,0,0.2-0.1c0.3-0.1,0.7-0.2,1-0.3c0.3-0.1,0.6-0.3,0.9-0.5c1.2-0.9,2.4-1.6,3.6-2.1
		c0.7-0.3,1.4-0.6,2.1-0.9c0.2-0.1,0.5-0.2,0.7-0.2c0.2-0.1,0.5-0.1,0.7-0.2c3.8-1,7.5-0.5,10.6,1c0.5,0.2,1,0.5,1.5,0.8
		c0.2,0.1,0.5,0.3,0.7,0.5c0.5,0.3,0.9,0.7,1.4,1c2,1.6,3.8,3.7,5.2,6c0.3,0.5,0.6,1,0.9,1.6c0,0,0,0,0,0c0.3,0.5,0.5,1.1,0.8,1.6
		c0.4,0.8,0.7,1.7,1,2.5c0.2,0.6,0.4,1.1,0.5,1.7c0.1,0.3,0.2,0.6,0.2,0.9c1,4.5,0.6,9.3-0.8,14.1c-0.9,3-2.1,5.9-3.7,8.7
		c0,0,0,0,0,0c-0.4,0.8-0.9,1.5-1.4,2.2c0,0,0,0,0,0c-0.5,0.7-1,1.5-1.5,2.2c-0.2,0.2-0.3,0.5-0.5,0.7c-0.4,0.5-0.7,0.9-1.1,1.4
		c-0.4,0.5-0.8,0.9-1.2,1.3c-1.4,1.5-2.8,2.9-4.4,4.2c-1.1,0.9-2.3,1.8-3.4,2.5c0,0,0,0,0,0c-0.5,0.3-1,0.6-1.4,0.9c0,0,0,0,0,0
		c-0.7,0.4-1.5,0.8-2.2,1.1c-1,0.5-2,0.9-3.1,1.2c-0.3,0.1-0.7,0.2-1,0.3c-0.7,0.2-1.3,0.4-2,0.5c-0.3,0.1-0.7,0.1-1,0.2
		c-4.2,0.7-8.5,0.4-12.7-1.4c-0.2-0.1-0.3-0.1-0.5-0.2c-0.3-0.1-0.6-0.2-1-0.3c-0.9-0.2-1.9-0.3-2.8-0.4c-0.4,0-0.8-0.1-1.2-0.1
		c-0.2,0-0.4,0-0.6,0c-0.7,0-1.4-0.1-2.1-0.2c-0.2,0.8-0.4,1.6-0.6,2.5c0.7,0.3,1.4,0.6,2.1,0.9h0c1.4,0.6,2.8,1.2,4.2,1.8
		c3.5,1.5,7.2,3.1,11.1,4.8c-0.4,0.7-0.8,1.4-1.2,2c-1.1,2-2.2,4-3.4,5.8c-6.2,9.7-13.2,18.4-21,26.2c-2.3,2.3-4.7,4.6-7.2,6.7
		c-2.5,2.2-5,4.2-7.6,6.2c-2.6,2-5.2,3.9-7.9,5.7c-1.8,1.2-3.6,2.4-5.5,3.6c-6.4,4-13.1,7.5-20.1,10.7c-1.4,0.6-2.8,1.2-4.2,1.8
		c-0.7,0.3-1.4,0.6-2.1,0.9c-2.1,0.9-4.3,1.7-6.5,2.5c-2.2,0.8-4.4,1.6-6.6,2.3c-0.7,0.2-1.5,0.5-2.2,0.7c-1.5,0.5-2.9,0.9-4.4,1.4
		c-1.5,0.4-2.9,0.9-4.4,1.3c-1.5,0.4-2.9,0.8-4.4,1.2c-3.6,1-7.3,1.8-10.9,2.5c-1.5,0.3-2.9,0.6-4.4,0.8
		c-44.7,8.1-87.9,0-128.3-28.3c-2.5-1.7-4.9-3.5-7.2-5.3c-0.5-0.4-0.9-0.8-1.4-1.1c-3.5-2.9-6.9-5.9-10-9.1
		c-0.9-0.9-1.8-1.9-2.7-2.8c-0.9-1-1.8-1.9-2.6-2.9c-0.7-0.8-1.3-1.6-2-2.4c-1-1.2-1.9-2.4-2.9-3.7c-0.9-1.2-1.8-2.5-2.7-3.8
		c0,0,0,0,0,0c-0.6-0.9-1.1-1.7-1.7-2.6c-0.5-0.9-1.1-1.7-1.6-2.6c-1.1-1.9-2.2-3.8-3.1-5.8c-1.2-2.4-2.3-4.9-3.3-7.5
		c-0.8-1.9-1.4-3.9-2.1-5.8c-0.2-0.7-0.4-1.3-0.6-2c-0.3-1.1-0.6-2.1-0.9-3.2c-0.3-1.1-0.5-2.2-0.8-3.3c0,0,0,0,0,0
		c-1.5-6.9-2.2-14.2-2.1-21.9c0-1.5,0.1-3,0.2-4.6c0.1-1.6,0.2-3.2,0.4-4.8c0.1-1.3,0.3-2.7,0.5-4c0.1-0.9,0.3-1.8,0.4-2.7
		c1.5-8.9,3.8-17.9,6-26.6c4.7-19.5,7.8-39,5.8-59.2c-1.5-14.9-2.3-30-2.5-44.9c-0.1-4.2,0.1-8.3,0.6-12.4c0.1-0.4,0.1-0.8,0.1-1.2
		v0c0.2-1.5,0.4-3.1,0.8-4.6c0.1-0.4,0.1-0.8,0.2-1.1c0.2-1.1,0.5-2.3,0.8-3.4c0.3-1.1,0.6-2.3,1-3.4c0.1-0.4,0.2-0.8,0.4-1.1
		c1.2-3.3,2.7-6.6,4.6-9.8c0.2-0.4,0.4-0.7,0.6-1c-4.9,19.3-7.3,38.8-5.7,58.4c3.4-14,6.8-28.1,10.3-42.4c0.6-2.6,1.3-5.2,1.9-7.9
		c0.6-2.4,1.2-4.9,1.8-7.4c0.4-1.5,0.7-3,1.1-4.5h0v0c-0.1,0.1-0.2,0.1-0.3,0.2c-1.4,1-2.1,1.6-3,2.3c-0.1,0.1-0.3,0.2-0.5,0.3
		c1.3-6.2,3.8-11.1,7.2-15.3c0.5-0.7,1.1-1.3,1.6-1.9c0.6-0.7,1.3-1.4,2-2.1c0.1-0.1,0.2-0.2,0.3-0.3c0.5-0.5,1-0.9,1.5-1.4
		c0.3-0.3,0.6-0.6,1-0.8c2-1.7,4.1-3.3,6.2-4.9c0.7-0.5,1.5-1,2.2-1.6c4.8-3.4,9.8-6.7,14.3-10.7c-13.1,3.4-25.4,11.2-35,20.9
		c-20.3,20.5-25.9,45.8-25.4,73.6c0.3,22.7,0.3,45.5-1.1,68.1c-0.4,7-1.8,13.9-3.2,20.8c-0.4,1.7-0.7,3.5-1.1,5.2
		c-0.4,1.9-0.8,3.8-1.1,5.7c-0.2,0.8-0.3,1.6-0.5,2.5c-0.4,2.5-0.8,5-1.2,7.4c-4.9,38.6,5.6,72.7,32.3,101c0.8,0.8,1.6,1.7,2.4,2.5
		c0.8,0.8,1.6,1.6,2.4,2.4h0c0.8,0.8,1.6,1.5,2.5,2.3c0.4,0.4,0.8,0.7,1.3,1.1c0.8,0.7,1.7,1.4,2.5,2.2h0c1.1,0.9,2.1,1.7,3.2,2.6
		c0,0,0,0,0,0c1.1,0.8,2.2,1.6,3.3,2.4h0c0.9,0.6,1.8,1.2,2.7,1.8c0.5,0.3,0.9,0.6,1.4,0.9c1.4,0.9,2.7,1.7,4.1,2.6h0
		c3.5,2.1,7.2,4,10.9,5.7c0.7,0.3,1.4,0.7,2.1,1c3.4,1.5,6.8,2.8,10.3,4.1c3,1.1,6.1,2,9.2,2.9c2.1,0.6,4.2,1.1,6.3,1.6
		s4.2,1,6.4,1.4c4.3,0.8,8.6,1.5,13.1,2.1c3.3,0.4,6.6,0.8,10,1.1c1.1,0.1,2.2,0.2,3.4,0.3c0.4,0,0.8,0.1,1.2,0.1
		c1,0.1,2.1,0.2,3.4,0.4c0.8,0.1,1.5,0.2,2.4,0.3l0,0c-0.4,1-0.8,2-1.2,2.9c-0.2,0.6-0.5,1.2-0.7,1.8c-0.2,0.5-0.4,1-0.6,1.5
		c-1.1,2.7-2.1,5.1-3.4,7.4c-0.3,0.5-0.7,1-1.1,1.4c-0.1,0.1-0.2,0.2-0.3,0.3c-1.3,1.1-2.9,2-4.2,3.1c-0.2-0.2-0.4-0.5-0.6-0.7
		s-0.4-0.5-0.6-0.8c-0.4-0.5-0.8-1-1.2-1.5c-0.9-1.1-1.8-2.2-2.9-3.6c-3,0.2-7,0.5-11,0.9c-6.3,0.7-12.6,1.5-18.9,2.3
		c-7.2,0.9-14.5,1.8-21.7,2.5c-3.2,0.3-6.5,0.5-9.7,0.7c-36.9,2-72.8-1.7-107.2-17.5c-6.4-2.9-11.7-6-15.7-10.1
		c-0.5-0.5-1-1-1.4-1.6c-0.2-0.3-0.4-0.5-0.7-0.8c-0.7-0.8-1.3-1.7-1.8-2.7c-0.1-0.2-0.3-0.5-0.4-0.7c-0.3-0.5-0.5-1-0.8-1.5
		c-0.4-0.8-0.7-1.6-1-2.4c-0.2-0.6-0.4-1.1-0.6-1.7c-0.5-1.5-0.9-3.2-1.2-5c-0.1-0.7-0.3-1.5-0.5-2.2c-0.1-0.2-0.1-0.5-0.2-0.7
		c-0.1-0.3-0.2-0.7-0.4-1c-0.9-2.2-2.1-4.4-3.5-6.5c-1-1.5-2.1-2.9-3.1-4.3c-1.6-2-6.3-3.2-8.6-2.3c-1.1,0.4-2.3,1.6-3.1,3
		c-0.4,0.7-0.8,1.5-1.1,2.2c-0.1,0.2-0.1,0.4-0.2,0.6c-0.1,0.4-0.2,0.8-0.2,1.1c0,0.2,0,0.3-0.1,0.5c-0.3,4.6,1,9.3,1.9,13.8
		c0.7,3.3,1.8,6.6,2.7,9.9c-0.4,0.4-0.9,0.9-1.3,1.3c-1.1-0.6-2.1-1.3-3.2-1.9c-2.1-1.3-4.3-2.6-6.4-3.8c-1.1-0.6-2.1-1.3-3.2-1.9
		c-5.7-3.3-11-7.4-17.1-9.4c-2.7-0.9-8.8,0.8-10.3,2.3c-0.1,0-0.1,0.1-0.1,0.1c-0.1,0.1-0.2,0.3-0.2,0.4c-1,5.5-3.9,8.9-7,13
		c-2,2.7-0.4,8.1-0.4,10.7c-0.7,0.4-1.5,0.8-2.2,1.2c-0.5,0.2-1,0.5-1.5,0.8c-0.5,0.2-1,0.5-1.5,0.7c-1.3,0.7-2.6,1.3-3.5,2.1
		c-0.6,0.5-1,1.1-1.3,1.7c-2.1,5.2-0.3,8.7,2.6,11.7c0.4,0.4,0.8,0.8,1.3,1.2c0.3,0.3,0.6,0.5,0.9,0.8c0.4,0.4,0.9,0.8,1.4,1.2
		c0.3,0.3,0.6,0.5,0.9,0.8c1.1,0.9,2.2,1.8,3.1,2.7c-0.4,0.3-0.8,0.7-1.2,1.1c-0.2,0.2-0.4,0.3-0.6,0.5c-3.6,3.5-4.3,6.8-2.3,9.5
		c0.1,0.1,0.2,0.2,0.3,0.4c0.2,0.2,0.4,0.5,0.7,0.7c0.1,0.1,0.2,0.2,0.4,0.3c1.2,1,2.9,2,5.1,2.8c1.5,0.5,3,0.9,4.6,1.3
		c0.5,0.1,1,0.2,1.5,0.4c7.5,1.9,15.1,3.7,22.6,5.6c2.3,0.6,4.5,1.1,6.8,1.7c2.3,0.6,4.5,1.2,6.8,1.8c0.4,0.1,0.9,0.2,1.3,0.4h0
		c0.3,0.1,0.6,0.2,0.9,0.4c1.2,0.5,2.4,1.2,3.2,2.1c0.3,0.3,0.5,0.6,0.6,1c0.1,0.2,0.1,0.5,0.2,0.7c0.1,0.3,0.2,0.7,0.4,1
		c0.1,0.3,0.3,0.6,0.4,0.9c2.7,5.6,7.4,8.9,12.7,11.9c17.5,10,35.7,17.2,54.6,22.3c2.4,0.6,4.7,1.2,7.1,1.8
		c4.8,1.1,9.5,2.1,14.4,2.9c3.6,0.6,7.3,1.2,10.9,1.7c8.5,1.2,17.2,1.9,25.9,2.3c5.8,0.3,11.5-0.4,18.5-0.8
		c-3.7,16.5-7.3,32.6-10.9,48.7c-2.2,9.7-4.3,19.4-6.5,29.1h0c-0.2,0-0.6-0.1-1-0.2c-0.2,0-0.3-0.1-0.5-0.1
		c-0.8-0.2-1.8-0.3-2.8-0.6c-49.1-12.1-95,30.9-83.8,80.2c1.3,5.5,2.8,10.8,4.5,16c0.5,1.5,1,2.9,1.6,4.3c1.3,3.6,2.8,7,4.4,10.4
		c0.5,1,1,2,1.5,3c0.5,1,1,2,1.5,2.9c0,0,0,0,0,0c0.7,1.3,1.4,2.5,2.1,3.8c0.4,0.6,0.7,1.3,1.1,1.9c1.1,1.8,2.3,3.7,3.5,5.4
		c0.4,0.5,0.7,1,1.1,1.5c2.5,3.6,5.2,7,8.1,10.3v0c1.9,2.1,3.8,4.2,5.9,6.2c15.2,15,34.6,26.1,57.7,33.5c3.4,1.1,5.7,1.9,7.1,3.1
		c0.1,0.1,0.2,0.2,0.3,0.2c0.1,0.1,0.2,0.2,0.2,0.2c1.8,1.8,2,4.5,1.5,9.5c0,0,0,0.1,0,0.1c-0.1,0.6-0.1,1.2-0.2,1.9
		c-0.1,0.4-0.1,0.8-0.2,1.2c-0.2,1-0.4,2.1-0.6,3.1c-0.1,0.4-0.2,0.8-0.2,1.2c0,0.3-0.1,0.6-0.1,0.8c-0.1,0.3-0.1,0.6-0.1,0.9
		c-0.7,5.2,0.7,10.1,3.6,13.4c0.1,0.2,0.3,0.3,0.5,0.5c0.9,0.9,1.8,1.6,2.9,2.2c0.3,0.2,0.7,0.4,1.1,0.5c0.2,0.1,0.4,0.2,0.7,0.3
		c0.2,0.1,0.5,0.2,0.7,0.2c1.6,0.5,3.3,0.8,5.2,0.7c0,0,0,0,0.1,0c0.8,0,1.5-0.1,2.3-0.2c0.5-0.1,1.1-0.2,1.6-0.2
		c0.7-0.1,1.3-0.2,2-0.4c4.8-1.1,9.5-3.2,13.2-5.9c0.9-0.7,1.9-1.4,2.8-2.1c0.9-0.7,1.8-1.5,2.6-2.3c17-15.9,22.3-41.5,13.9-65.9v0
		c2.5,0.4,5,0.9,7.5,1.3c0.8,0.2,1.7,0.3,2.5,0.5c0,0,0,0,0,0c0.9,0.2,1.9,0.3,2.8,0.5c0.5,0.1,1,0.2,1.4,0.2
		c1.4,0.2,2.8,0.4,4.3,0.5c1.4,0.1,2.9,0.2,4.3,0.2c7.2,0.1,14.4,0.2,21.7,0.2c14,0.1,27.9,0.2,41.9,0c1.8,0,3.6-0.1,5.4-0.1
		c3.6-0.1,7.1-0.2,10.7-0.3c1.8,0,3.6-0.1,5.4-0.2c22.1-0.8,43.5-4.4,63.3-13.5c1.6-0.8,3.3-1.5,4.9-2.4c1.6-0.8,3.2-1.7,4.8-2.6
		c3.2-1.8,6.4-3.8,9.4-6c0.2-0.1,0.4-0.2,0.5-0.4c0.5-0.3,1-0.7,1.5-1c4.7-3.1,9.6-5.8,14.3-8.7h0c0.2,0.5,0.4,1,0.6,1.5
		c0.2,0.5,0.4,1,0.6,1.5c2.7,6.8,4.7,13.9,8.7,19.5c0.5,0.7,1,1.4,1.6,2.2c1.6,2.1,3.2,4.2,5,6.3c0.9,1.1,1.9,2.2,2.8,3.2
		c1.2,1.3,2.4,2.7,3.6,4c1.2,1.3,2.5,2.6,3.7,3.9c2,2,4,4.1,6.1,6.1c1.4,1.3,3.4,2.5,5.5,3.2c0.5,0.2,0.9,0.3,1.4,0.4
		c0.2,0.1,0.5,0.1,0.7,0.2c0.3,0,0.5,0.1,0.8,0.1c1.1,0.2,2.1,0.2,3.1,0.1c0.6-0.1,1.2-0.1,1.8-0.2c1.2-0.1,2.4-0.3,3.5-0.4
		s2.3-0.3,3.5-0.5c0.6-0.1,1.2-0.2,1.7-0.3c1.2-0.2,2.3-0.4,3.4-0.7c0.3-0.1,0.7-0.1,1-0.2c13.9-3,26.7-8.2,38.5-15.6
		c9.5-6,18.3-13.3,26.4-22c1.5-1.6,2.6-3.2,3.3-4.8c2.2-5,0.9-9.9-3.1-13.8c-0.3-0.2-0.5-0.5-0.8-0.8c-0.2-0.1-0.3-0.3-0.5-0.4
		c-0.3-0.2-0.6-0.5-1-0.7c-0.3-0.2-0.7-0.5-1-0.7c-0.5-0.3-1.1-0.7-1.7-1c-0.4-0.2-0.8-0.4-1.2-0.6c-0.8-0.4-1.6-0.7-2.5-1
		c-0.5-0.2-1.1-0.4-1.7-0.6c-0.3-0.1-0.6-0.2-0.8-0.3c-0.6-0.2-1.1-0.3-1.7-0.5c-1.4-0.4-2.6-0.8-3.8-1.2c-0.2-0.1-0.5-0.2-0.7-0.2
		c-0.5-0.2-0.9-0.3-1.3-0.5c-0.2-0.1-0.4-0.2-0.7-0.2c-0.4-0.2-0.8-0.3-1.2-0.5c-4.8-1.9-7.8-3.9-9.7-6.9c-0.2-0.2-0.3-0.5-0.5-0.8
		c-0.3-0.5-0.5-1.1-0.8-1.7c-0.2-0.6-0.5-1.2-0.6-1.9c-0.1-0.2-0.1-0.4-0.2-0.6c-0.2-0.6-0.3-1.3-0.4-1.9c0-0.2-0.1-0.5-0.1-0.7
		c-0.2-1.4-0.4-3-0.6-4.7c-0.1-0.8-0.1-1.8-0.2-2.7c0-0.6-0.1-1.3-0.1-2c-0.2-4.2-0.3-8.3-0.5-12.5c0-1.4-0.1-2.8-0.1-4.2
		c-0.3-9.2-0.5-18.5-1.1-27.7c-0.8-11.7-4.9-21.1-12.1-28.2c-1.1-1.1-2.2-2.1-3.4-3.1c-0.8-0.7-1.7-1.3-2.5-1.9
		c-0.8-0.5-1.5-1-2.3-1.5c-2.4-1.5-5-2.8-7.8-4c-2.3-1-4.6-1.8-7-2.5c0,0,0,0,0,0c-8.3-2.4-16.8-3.3-25.3-2.9c-0.2,0-0.4,0-0.6,0
		c-1.1,0-2.3,0.1-3.4,0.2c-0.3,0-0.5,0-0.8,0.1c-1.2,0.1-2.3,0.2-3.5,0.4c-1.5,0.2-2.9,0.4-4.4,0.7c-1.1,0.2-2.2,0.4-3.3,0.6
		c-1.3,0.3-2.6,0.5-3.9,0.8c-0.2,0-0.4,0.1-0.6,0.1c-0.9,0.2-1.8,0.4-2.7,0.7c-1.3,0.3-2.5,0.7-3.8,1c-3.2,0.8-6.3,1.7-9.5,2.5
		c-0.1-1.1-0.2-2.1-0.4-3.2c-0.6-5.3-1.3-10.5-2-15.8c-0.3-2.1-0.6-4.2-0.9-6.3c-0.3-2.1-0.6-4.2-1-6.3c-0.2-1-0.3-2.1-0.5-3.1
		c-0.5-3.1-1.1-6.2-1.7-9.3c-0.8-4.2-1.6-8.3-2.6-12.4c-0.5-2-1-4.1-1.5-6.1c-0.5-2-1-4.1-1.6-6.1c-0.6-2-1.2-4-1.8-6.1
		c-0.6-2-1.2-4-1.9-6c-0.7-2-1.4-4-2.1-6c-1.1-3-2.3-6-3.5-8.9c-0.4-1-0.8-2-1.3-2.9c0.6-0.5,1-0.8,1.3-1c0.1-0.1,0.2-0.2,0.3-0.2
		c0,0,0.1,0,0.1,0c0,0,0,0,0.1,0c0.7-0.2,1.4-0.4,2-0.5c0.3-0.1,0.7-0.2,1-0.2c0.3-0.1,0.7-0.2,1-0.2c1.4-0.3,2.8-0.6,4.2-0.9
		c4.2-0.9,8.4-1.9,12.5-3c2.8-0.7,5.5-1.5,8.2-2.3c2.7-0.8,5.4-1.7,8.1-2.5c1-0.3,2-0.7,3-1c3-1,6-2.1,8.9-3.2
		c10.5-4,20.6-8.7,30.4-14.1c2-1.1,4-2.2,5.9-3.4c13.7-8.1,26.7-17.6,39-28.7c0.3-0.3,0.7-0.5,1-0.7c0.1-0.1,0.2-0.1,0.4-0.2
		c0,0,0,0,0,0c0.5-0.2,1.1-0.4,1.6-0.6c11-4,22.1-7.9,33.1-11.9c3.7-1.3,7.3-2.7,11-4c0.5-0.2,0.9-0.4,1.4-0.6
		c1.4-0.7,2.7-1.7,3.8-2.8c0.5-0.5,1-1,1.5-1.5c3.8-4.1,3.8-7.8,0-11.7c-0.3-0.3-0.6-0.6-0.9-0.9c-0.2-0.2-0.3-0.3-0.5-0.4
		c2.6-1.9,4.9-4,6.3-6.5c0.1-0.2,0.2-0.3,0.3-0.5c0.3-0.6,0.6-1.2,0.8-1.8c0.1-0.3,0.2-0.6,0.3-0.9c0,0,0-0.1,0-0.1
		c0.1-0.3,0.1-0.5,0.2-0.8c0,0,0-0.1,0-0.1c0-0.2,0.1-0.5,0.1-0.7c0-0.1,0-0.2,0-0.2c0-0.3,0-0.6,0-0.9
		C691.6,513.3,691.6,512.8,691.5,512.3z M683.7,522.4c-0.2,0.1-0.4,0.2-0.5,0.4c-1,0.7-2.1,1.2-3.2,1.7c-1.5,0.7-3,1.3-4.6,1.9
		c-1.6,0.6-3.2,1.1-4.7,1.6c-1.1,0.4-2.1,0.7-3.2,1.1c-2.2,0.8-4.3,1.8-6.5,2.8c0.2,0.7,0.3,1.4,0.5,2.2c6.4-0.5,12.8-1.1,19.2-1.6
		v0c0.5,0.7,0.9,1.4,1.3,2.1c-0.3,0.3-0.6,0.6-0.9,0.9c-0.6,0.6-1.2,1.2-1.7,1.9c-0.4,0.5-0.9,0.9-1.3,1.4c-1,1-2.1,1.9-3.4,2.5
		c-6.6,2.9-13.6,5-20.5,7.3c-6.4,2.2-12.8,4.4-19.9,6.8c0,0-5.5,1.9-9.7,3.3c-0.9,2.2-3,4.2-6.3,6.8
		c-30.5,24.4-65.1,39.6-102.9,48.2c-11.6,2.6-11.5,2.8-18.7-6.3c0.8,4.3,1.5,8.6,2.5,12.8c5.3,20.4,11.1,40.7,16,61.2
		c2.7,11.1,4,22.6,5.7,34c1,6.6-1.5,11-8,14.5c-23.6,12.8-42.6,31.2-60.2,51.2c-0.7,0.8-1,1.9-0.6,4.2c1.8-1.3,3.8-2.5,5.5-3.9
		c17.2-14.2,33.7-29.2,51.6-42.3c19.2-13.9,40.9-21.8,65.4-18.8c29.8,3.7,43.8,18.9,44.5,48.8c0.3,12.7-0.4,25.4,0.3,38
		c1.1,17.9,1.9,19.6,21.3,26.5c2.4,0.9,5,1.3,7.4,2.2c8.4,3.4,10.3,9.1,4.5,15.8c-4.9,5.6-10.6,10.7-16.9,14.7
		c-14.8,9.5-30.3,18-47.9,21.3c-9.1,1.7-13.1-2.4-9.2-10.7c2.6-5.6,7.5-10.9,12.7-14.3c8-5.2,17.2-8.5,25.9-12.6c3-1.4,5.9-3,10-5.1
		c-22.3-4-51.9,18.5-53.9,40.5c-15.7-14.9-31-29-30.4-52.4c0.3-14.6,1.6-29,7.5-42.7c1.1-2.5,0.2-5.9,0.2-8.9c-1-0.2-2-0.3-3.1-0.5
		c-2.7,6.7-5.3,13.5-8.7,22c-2.2-6.6-3.9-11.8-5.6-17c-1,0.2-2,0.4-3,0.6c0.8,4.7,1,9.6,2.6,14c2.9,7.8,4.1,15.4,3.7,23.9
		c-0.4,8.5-4.4,13.5-10.8,17.4c-29.2,18.1-60.5,30-95.4,30c-29.8-0.1-59.5-0.3-89.3-0.6c-16.3-0.2-29.8-5.3-35.8-22.4
		c-1.2-3.4-3.8-6.5-6-9.5c-8.9-12.2-16.6-24.8-16.1-40.8c0.1-3-1.7-6.1-2.6-9.1c-1,0.2-2.1,0.4-3.1,0.6c0.8,6.2,1.5,12.3,2.3,18.5
		c-0.5,0.4-0.9,0.8-1.4,1.1c-5.2-4.3-10.4-8.5-15.6-12.8c-0.6,0.4-1.1,0.8-1.7,1.2c0.9,2,1.3,4.5,2.8,6c4.6,4.9,10.4,9,14.3,14.3
		c6.8,9.2,12.5,19.2,18.8,28.8c5.5,8.6,12.3,16.6,16.4,25.8c3.3,7.4,3.8,16.1,5.1,24.3c0.4,2.6-0.7,5.5-0.5,8.3
		c5.5-9.9,3.3-20-0.4-30.9c6.6,1.9,8.6,6.4,9.9,11.4c4.9,20.1-8,47.8-26.4,56.9c-11.9,5.9-19.4,1.3-18.9-12c0.2-6.8,1.7-13.6,2-20.4
		c0.1-1.3-2.6-3.7-4.3-4c-48.3-9.5-77.2-41.1-94.8-84.6c-11.3-27.9-3.7-56.4,18.1-74c12.8-10.4,27.9-15,44.1-12.7
		c6.7,1,13.2,5.7,19,9.9c11.2,8,22,16.8,32.6,25.5c2.4,2,3.6,5.3,5.3,8.1c2.1,3.5,4.1,7,6.1,10.5c0.8-0.3,1.6-0.7,2.4-1
		c-1.2-4.1-2.4-8.3-4.1-14c2.9,1.6,4.5,2.9,6.2,3.4c1.9,0.6,4.1,0.4,6.1,0.6c-0.9-1.9-1.3-4.4-2.8-5.5c-7.4-5.8-14.9-11.3-22.5-16.9
		c-6.8-5-13.9-9.7-20.4-15.1c-1.8-1.5-3.4-5.2-2.9-7.4c3.9-21.4,8-42.7,12.4-64c3.3-16.2,3.9-28,0.2-38.8c-1,5.8-1.4,9.8-2.5,13.5
		c-0.5,1.7-2.8,4.1-4.1,4c-27.5-2.1-55.5-1.3-82-11c-14-5.2-27.7-11.4-41.3-17.7c-0.9-0.4-1.7-1.2-2.5-2.1c0,0-1,0.8-4.1-1.3
		c-2.6-1.8-6.7-5.8-12.8-14.2v0h0c-2.1-0.5-4.2-0.9-6.3-1.4c-4.2-0.9-8.3-1.8-12.4-2.7c-2.1-0.5-4.1-0.9-6.2-1.4
		c-4.1-0.9-8.2-1.8-12.3-2.7s-8.1-1.8-12.2-2.7c0.1-0.8,0.2-1.6,0.3-2.4c0-0.1,0-0.2,0.1-0.4v0c0.1-0.1,0.3-0.2,0.4-0.3
		c0.4-0.3,0.9-0.6,1.3-0.8c0.3-0.2,0.6-0.3,0.9-0.4c0.2-0.1,0.3-0.1,0.4-0.2c0.3-0.1,0.6-0.2,0.9-0.3h0c0.4-0.1,0.9-0.2,1.3-0.3
		c0,0,0,0,0,0c0.3,0,0.5-0.1,0.8-0.1c0.1,0,0.2,0,0.2,0c0.2,0,0.4,0,0.7,0c1.2,0,2.3,0.1,3.5,0.3c0.1,0,0.2,0,0.3,0
		c1.1,0.2,2.2,0.5,3.2,0.7c1,0.2,1.9,0.5,2.9,0.7c0.6,0.1,1.2,0.2,1.8,0.3c1.6,0.2,3.2,0.3,4.7,0c0.2-0.7,0.5-1.3,0.7-2
		c-2.1-1-4.2-2-6.3-2.9c-5.6-2.3-11.4-4.2-16.8-6.9c-0.1-0.1-0.3-0.2-0.4-0.2c-0.4-0.2-0.9-0.5-1.3-0.8c-0.2-0.1-0.3-0.2-0.4-0.3
		c-0.3-0.2-0.6-0.5-0.8-0.7c-0.9-0.9-1.7-1.8-2.3-2.9c-0.2-0.3-0.3-0.6-0.4-0.9c-0.2-0.4-0.3-0.8-0.4-1.3v0c0-0.2-0.1-0.5-0.1-0.7
		c-0.2-1.9,0.3-4,1.2-5.1c1.1-1.2,4.9-1.4,6.8-0.5c1.4,0.7,2.8,1.4,4.2,2.2c1,0.6,2.1,1.1,3.1,1.7c1,0.6,2.1,1.2,3.1,1.8
		c2.1,1.2,4.1,2.4,6.2,3.5c2.1,1.2,4.4,1.9,6.6,2.9c1.1-1.2,2.1-2.4,3.2-3.7c-2-0.6-4.2-0.8-5.8-1.9c-2-1.4-4.1-2.8-6.1-4.2
		c-0.7-0.5-1.3-1-2-1.4c-1.3-1-2.6-1.9-4-2.9c-0.7-0.5-1.3-1-2-1.5c-0.7-0.5-1.3-1-2-1.5c-0.5-0.4-1-0.8-1.4-1.2
		c-2.6-2.8-2.1-6,0.7-9c0.1-0.2,0.3-0.3,0.4-0.4c0.2-0.2,0.5-0.5,0.7-0.6c0.7-0.5,1.4-0.7,2-0.6c0.2,0,0.4,0.1,0.6,0.2
		c0.4,0.2,0.8,0.5,1.2,0.8c0.1,0.1,0.2,0.2,0.3,0.3c0.1,0.1,0.2,0.2,0.3,0.3c0.2,0.2,0.4,0.4,0.5,0.6v0c0.3,0.3,0.5,0.6,0.8,0.9
		c0.2,0.2,0.3,0.3,0.5,0.5c0.7,0.6,1.4,1.2,2,1.7c2.7,2.3,5.4,4.6,8.3,6.7c0.4,0.3,0.7,0.5,1.1,0.8c0.7,0.5,1.5,1,2.2,1.5
		c0.8,0.5,1.5,1,2.3,1.5c0.4,0.2,0.8,0.5,1.2,0.7c-1.7-4.6-4.4-8.2-7.7-11.4c-0.8-0.8-1.7-1.6-2.5-2.3c-0.9-0.8-1.7-1.5-2.6-2.2
		c-1.8-1.4-3.6-2.8-5.4-4.2c6.6-9.2,7.6-9.4,15.7-3.8c0.9,0.6,1.8,1.3,2.7,1.9c0.9,0.6,1.8,1.3,2.7,1.9c2.5,1.7,5.1,3.3,8,4.7
		c0.5,0.2,1,0.5,1.6,0.7c0.3,0.1,0.5,0.2,0.8,0.3c0.5,0.2,1.1,0.4,1.7,0.6c0.6,0.2,1.1,0.4,1.7,0.5c0.6,0.2,1.2,0.3,1.8,0.5
		c1.2,0.3,2.5,0.5,3.8,0.6c-0.2-0.9-0.5-1.7-0.7-2.5c-0.7-2.5-1.4-4.8-2-7.2c-0.6-2.3-1.3-4.5-1.9-6.8c-0.2-0.8-0.4-1.5-0.6-2.2
		c-0.2-0.8-0.4-1.6-0.6-2.4c0,0,0,0,0,0c-0.1-0.5-0.2-1.1-0.3-1.6c-0.2-1-0.3-2-0.2-2.9c0.1-1.8,1.1-4.8,2.1-5
		c1.1-0.2,2.6-0.1,3.9,0.3c0.2,0.1,0.4,0.2,0.6,0.2c0,0,0,0,0,0c0.2,0.1,0.4,0.2,0.6,0.3c0.2,0.1,0.4,0.2,0.5,0.3
		c0.1,0.1,0.1,0.1,0.2,0.2c0.1,0.1,0.1,0.1,0.2,0.2c1.9,2.2,2.7,5.3,3.9,8.1c1.6,3.6,3.1,7.2,4.7,10.9s3.1,7.3,4.6,10.9
		c0.1,0.2,0.1,0.3,0.2,0.5c0,0,0,0,0,0c0.1,0.4,0.2,0.8,0.2,1.2c1.6,0.5,3.7,1.2,6.2,2.1c0.4-0.5,0.8-0.9,1.2-1.4
		c2.4,1.6,4.9,3.1,7.3,4.5h0c0.2,0.1,0.4,0.2,0.6,0.3c0,0,0,0,0,0c43.5,25.2,91.2,25.4,139.9,19.5c3-0.4,6.1-0.5,9.1-1.2
		c11.2-2.6,20.4-4.4,30.9,6c11.2,11.2,28.6,10.2,44.2,9.2c4.1-0.2,8.1-0.9,12.5-1.5l3.5-0.6c0,0,0,0,0-0.1c2.5-1,4.7-1.5,6.6-2.6
		c9.9-6.1,20.3-11.6,29.4-18.7c8.3-6.6,7.7-7.4,16.8-8.2c-1.1-1.8-2-3.4-2.8-4.7c17-3.8,34.3-6.2,50.6-11.7
		c26.4-8.8,52.2-19.4,78.1-29.7c3.2-1.3,5.9-1.9,8.3-1.8c2.5-1,6.7-2.1,12.6-2.4c0-0.2,0-0.3,0.1-0.5c2.8-8.6,5.8-17.2,9.1-25.7
		c0.4-1.1,1.1-2.4,1.9-3.4c0.2-0.2,0.4-0.4,0.6-0.6c0.5-0.5,1-0.9,1.6-1.2c3.3-1.6,6.9-1.3,6.4,3.8c-0.2,1.5-0.5,3.1-0.8,4.6
		c-0.1,0.5-0.2,1-0.4,1.5c-0.2,1-0.5,2-0.7,3.1c-0.1,0.5-0.2,1-0.2,1.5c0,0.5-0.1,1-0.1,1.6c0,3.8,0.3,8.9,2.7,11.2
		c3.8,3.7,7.7-0.3,10.7-3.2c4.7-4.5,9.3-9.1,14-13.6c1.6-1.5,3.2-3,4.8-4.4c0.6-0.5,1.5-1,2.4-1.5c0.3-0.1,0.5-0.2,0.8-0.3
		c0.7-0.3,1.3-0.5,1.9-0.5c0,0,0,0,0,0c0.5-0.1,1-0.1,1.3,0.1c0.1,0,0.1,0.1,0.2,0.1c0.7,0.6,1.3,1.3,1.6,1.9c0.5,1,0.6,2,0.4,3
		c-0.1,0.3-0.2,0.6-0.3,1c-0.2,0.6-0.5,1.1-1,1.7c-0.1,0.1-0.2,0.2-0.3,0.4c-0.3,0.4-0.6,0.7-1,1.1c-0.6,0.6-1.1,1.1-1.7,1.7
		c-1.7,1.7-3.4,3.4-5,5.2c-2.2,2.3-4.5,4.6-6.7,6.9c0.5,0.6,0.9,1.1,1.4,1.7c3.8-2.5,7.6-4.9,11.5-7.5c2.3-1.5,4.7-3.1,7.2-4.6h0
		c0.8,0.7,1.5,1.5,2,2.2c2.5,3.2,2.6,6-0.3,9c-0.3,0.4-0.7,0.7-1.2,1.1c-1.1,1-2.2,1.9-3.3,2.9c-1.1,1-2.2,2-3.2,3
		c-1.1,1-2.1,2.1-3.2,3.1c-1.1,1-2.1,2.1-3.2,3.1v0c0.5,0.7,0.9,1.3,1.3,2c4.7-2.1,9.3-4.6,14.2-6.1c3-0.9,8.6-1.3,9.7-0.2
		c0.1,0.1,0.1,0.1,0.2,0.2C687.6,518.5,686,520.7,683.7,522.4z M632.5,553.4c-0.2-0.3-0.5-0.6-0.6-0.9
		C632.1,552.8,632.3,553.1,632.5,553.4z"/>
	<path class="st0" d="M314.6,439.7c6,3,10.3,5.4,14.7,7.3c16.9,7.1,32.4,4.9,46.6-6.9c1.9-1.6,4.6-2.4,7-3.5
		c-0.5,2.4-1.1,4.8-1.6,7.2c-0.4,2.3-0.6,4.6-1,6.8c-1.5,7.5-2.3,15.3-5,22.4c-3.6,9.8-11.4,15.8-21.6,18.4
		c-11.5,2.9-20.4-1.1-25.5-11.8c-2.3-4.8-4-10-5.5-15.2c-1.1-4-1.2-8.4-2.4-12.4C319.2,448.4,317.1,445,314.6,439.7z"/>
	<path class="st0" d="M368,169.1c-2.4-12.4-4.8-24.9-7.1-37.4c0.7-0.3,1.5-0.5,2.2-0.8c4.5,9.8,8.9,19.6,14.2,31.3
		c3.1-12.9,5-24.7,14.6-32.9c7.1,9.2,7.9,33.8,0.3,44.4c0-13.4,0-25,0-36.6c-0.7-0.1-1.4-0.1-2.1-0.2c-8.3,10.7-7.7,24.1-9.4,36.8
		c-0.8,0.2-1.6,0.4-2.5,0.6c-3.1-7.1-6.2-14.2-9.4-21.3c-0.5,0.2-1.1,0.4-1.6,0.6c1.3,7.5,2.6,15,3.7,21c-4.3-0.4-8.9-2.2-12.5-0.9
		c-15.4,5.6-30.6,11.6-45.5,18.4c-5,2.3-8.8,7.2-13.2,10.9c0.3,0.6,0.6,1.1,1,1.7c1.5-0.2,2.9-0.4,5.2-0.7
		c-7.2,15.3-17.7,29.4-9.3,47.3c-6.9,1.8-8.4-2.9-9-7.6c-1.5-10.7,1.9-20.3,6.9-29.6c1.5-2.9,1.6-6.5,3.1-9.4
		c2.3-4.5,4.2-10.1,8-12.6C324.1,179.7,344.4,171.8,368,169.1z"/>
	<path class="st0" d="M259,380.8c19.9-7.5,27.9-6.3,34.4,6c-2.5-1.3-4-1.9-5.3-2.8c-11.5-7.6-19.4-6.9-29.7,2.2
		c-1.4,1.2-3.8,1.3-5.8,1.9c-0.2-1.9-1-4-0.6-5.7c2.4-9,14-18.7,22.9-19.6c9.5-0.9,20.3,5.5,24.8,15.3c1.3,2.9,1.5,6.2,2.2,9.4
		c-0.6,0.3-1.3,0.6-2,0.9c-1.2-0.9-2.6-1.5-3.5-2.6c-2-2.6-3.6-5.5-5.6-8.1C281.3,365.1,269.8,366,259,380.8z"/>
	<path class="st0" d="M362.8,240.2c-6,7.2-11.3,15-18.1,21.2c-4.6,4.1-11.1,7-17.1,8.2c-6.8,1.3-10-4-8.6-10.6
		c1.4,2.6,2.6,7.5,4.8,7.9c3.4,0.7,7.8-0.8,11.1-2.7c12.5-7.1,20.1-18.6,26.5-31.1c1.2-2.4,2.4-4.9,3.6-7.4c0.6,0.1,1.3,0.2,1.9,0.2
		c0,2.7-0.6,5.6,0.1,8.1c1.3,4.2,3.4,8.1,5.2,12.1c3.8-1.8,8.5-2.8,11.1-5.6c3.9-4.1,6.3-9.6,9.4-14.6c1.7,10.8-9.8,25.1-20.4,25.4
		C364.3,251.6,364.4,244.9,362.8,240.2z"/>
	<path class="st0" d="M400,321.8c4.2-6.1,9.5-8.5,15.2-9.2c15-1.6,26.7,5,36.3,15.8c1.4,1.5,1,4.5,1.4,6.9c-2.4-0.2-5.1,0.1-7.1-0.9
		c-2.7-1.2-5-3.4-7.4-5.3c-10.1-7.9-20.8-12.5-33.8-7.3C403.7,322.1,402.5,321.8,400,321.8z"/>
	<path class="st0" d="M541.4,371.5c9.5-29.2,14.9-58.7,4.9-88.9C560.7,302.7,557.9,356.2,541.4,371.5z"/>
	<path class="st0" d="M396.7,395.1c-3-9.1,2.1-12.4,6.1-15.8c11.4-9.4,23.1-10.5,35-3.8c7.1,4,10.7,10.1,9.7,17.9
		c-8.1-7.1-13.7-17-25.7-16.5C410.2,377.3,403.5,384.9,396.7,395.1z"/>
	<path class="st0" d="M255.3,329.2c0.5-3,0.2-6.5,1.7-8.9c6.2-10.4,23.9-14.3,36.6-6.9c-13.5,4.6-27.7,5-35.8,17.6
		C257,330.4,256.1,329.8,255.3,329.2z"/>
	<path class="st0" d="M337.1,393.8c-10.5-1.6-21.4-3-24.7,9.5c-4.1,16,9.2,19.1,20.8,23.2c-8.3,3.8-18.5-0.9-23.2-9.7
		c-4.9-9.1-2.3-19.5,6.3-25.3C323.8,386.4,331.7,387,337.1,393.8z"/>
	<path class="st0" d="M478.5,275c-8.5-0.9-14.1-5.1-18.8-10.9c-10.1-12.8-15.6-45.7-10.2-61.8C451.2,251.3,454.9,260.6,478.5,275z"
		/>
	<path class="st0" d="M473.1,294.9c15.4,14.5,34.6,25,45.1,44.6c-15.5-14.4-31-28.8-46.5-43.2C472.2,295.8,472.6,295.4,473.1,294.9z
		"/>
	<path class="st0" d="M530.3,421.2c1.8-2,3.2-5.1,5.5-5.9c3.4-1.3,8-2.5,10.9-1.1c2.5,1.2,4.5,5.9,4.7,9.1c0.5,11-10.7,20.2-25,19.8
		c4-1.7,7.1-2.2,9-4c4.3-3.9,8.7-8.1,11.8-13c1.2-1.8-0.2-7.1-2.1-8.5c-1.8-1.3-6,0-8.8,0.8c-1.8,0.6-3.2,2.5-4.8,3.9
		C531.1,421.9,530.7,421.6,530.3,421.2z"/>
	<path class="st0" d="M310.7,218.6c0,11.5,0,23.2,0,34.9C302.9,245.1,304.8,222.3,310.7,218.6z"/>
	<path class="st0" d="M403.3,391.6c8.1-12,25.9-13.5,35-2.9C426.2,383.7,414.4,383,403.3,391.6z"/>
	<path class="st0" d="M486.1,272.1c-9.2-6.8-19.5-29.2-19.8-41.7C472.2,242.8,479.3,257.8,486.1,272.1z"/>
	<path class="st0" d="M408.7,212.8c-0.7,12.6,2.5,23.6,14.6,32.5C409.7,243.1,403.3,227.1,408.7,212.8z"/>
	<path class="st0" d="M495.3,323c11.9,8.7,22.9,18.1,23.4,34.6C514.7,343.4,505.2,333.1,495.3,323z"/>
	<path class="st0" d="M538.4,355.3c-1-13.3-1.9-25.2-2.8-37.1C540.3,324.2,542.2,344.6,538.4,355.3z"/>
	<path class="st0" d="M397.7,215.6c2.7,9.1-0.1,19.6,8.4,27.9c-1.6-0.2-4,0.1-4.8-0.8C394.8,234.4,396.7,224.8,397.7,215.6z"/>
	<path class="st0" d="M512.9,262.1c-10.6-9.6-14.7-20.5-15.8-31.4C501.7,239.9,506.9,250.3,512.9,262.1z"/>
	<path class="st0" d="M277.3,253.4c-6.4-6.3-6.4-16.7,0-23.5C277.3,237.5,277.3,245.6,277.3,253.4z"/>
	<path class="st0" d="M485.6,246.9c4.5,6,9.7,12.9,14.5,19.2C494,266.2,486.2,256,485.6,246.9z"/>
	<path class="st0" d="M517.1,363.9c5.5,5.4,6.7,11.7,3,18.2C519.1,376,518.1,369.7,517.1,363.9z"/>
	<path class="st0" d="M660.6,519.3c1.1-1,2.1-2,3.2-3.1C662.7,517.3,661.6,518.3,660.6,519.3L660.6,519.3z"/>
	<path class="st0" d="M673.5,507.2c-1.1,1-2.2,1.9-3.3,2.9C671.3,509.1,672.4,508.1,673.5,507.2c0.4-0.4,0.8-0.7,1.2-1.1
		C674.3,506.5,674,506.8,673.5,507.2z"/>
	<path class="st0" d="M82.3,570.2c0.1,0.3,0.3,0.6,0.4,0.9C82.5,570.8,82.4,570.5,82.3,570.2c-0.2-0.4-0.3-0.8-0.4-1.3
		C82,569.3,82.1,569.8,82.3,570.2z"/>
	<path class="st0" d="M87.5,575.8c-0.4-0.2-0.9-0.5-1.3-0.8C86.6,575.2,87,575.5,87.5,575.8z"/>
	<path class="st0" d="M86.5,590.8c4.1,0.9,8.1,1.8,12.2,2.7C94.6,592.6,90.6,591.7,86.5,590.8c0.1-0.8,0.2-1.6,0.3-2.4
		C86.7,589.2,86.6,590,86.5,590.8z"/>
	<path class="st0" d="M94.3,557.6c-0.5-0.4-1-0.8-1.4-1.2C93.3,556.8,93.8,557.2,94.3,557.6c0.7,0.5,1.3,1,2,1.5
		C95.6,558.5,95,558.1,94.3,557.6z"/>
	<path class="st0" d="M105.2,546.3c-1.8-1.4-3.6-2.8-5.4-4.2v0C101.6,543.4,103.5,544.8,105.2,546.3z"/>
	<path class="st0" d="M104.2,564.9c2,1.4,4,2.8,6.1,4.2C108.2,567.7,106.2,566.3,104.2,564.9z"/>
	<path class="st0" d="M110.4,550.8c-0.8-0.8-1.7-1.6-2.5-2.3C108.7,549.2,109.6,550,110.4,550.8z"/>
	<path class="st0" d="M134.5,528.9c0.2,0.8,0.4,1.6,0.6,2.4c0.2,0.7,0.4,1.5,0.6,2.2c-0.2-0.8-0.4-1.5-0.6-2.2
		C134.9,530.5,134.7,529.7,134.5,528.9z"/>
	<path class="st0" d="M135.8,601.7L135.8,601.7L135.8,601.7c-2.1-0.5-4.2-0.9-6.3-1.4C131.6,600.8,133.7,601.3,135.8,601.7z"/>
	<path class="st0" d="M137.6,540.3c0.6,2.3,1.3,4.7,2,7.2C138.9,545,138.2,542.6,137.6,540.3z"/>
	<line class="st0" x1="414.8" y1="589.2" x2="411" y2="589.8"/>
	<polygon class="st0" points="606.6,505.5 610.5,504.5 609.2,508.5 605.7,509.5 	"/>
	<path class="st0" d="M161.8,554.8c0,0,23.4,12.2,26.8,12.3c3.4,0.1-25-15.5-26.2-15.4C161.2,551.7,161.8,554.8,161.8,554.8z"/>
	<path class="st0" d="M451.6,546.9c0,0-0.9-7.1-0.9-10c0-2.9-3.9,11.4,0,16.8C454.6,559.2,451.6,546.9,451.6,546.9z"/>
	<g>
		<g>
			<path class="st0" d="M981.8,793.7c7.2-14.2,14.7-28.6,19.5-43.9c3.8-12.2,6.4-26.7,1.5-39c-4.7-11.8-15.9-16.4-28-16.7
				c-15.2-0.4-30.5,3.6-45.3,6.6c-31.1,6.3-62.6,13.8-94.5,13.2c-13.6-0.2-27.4-2-40-7.2c-10.7-4.4-25.2-12.9-25-26
				c0.1-7.5,3.2-15,5.8-22c2.8-7.5,5.3-15.1,7.5-22.8c4-14.1,7.1-28.7,8.2-43.3c1.4-19.4-2.8-46.8-27.3-47.5
				c-13.4-0.4-26.4,6.6-37.4,13.5c-13.1,8.2-25.2,18.2-37.1,28c-24.3,20.1-47.6,41.5-73.5,59.7c-24.4,17.1-51.1,31-79.6,39.8
				c-24,7.4-49.6,11.4-74.6,8.1c-5.4-0.7-10.8-1.8-16.1-3.3c-3.1-0.9-4.4,4-1.3,4.8c22.9,6.3,47.2,5.5,70.3,1
				c27.2-5.3,53.4-15.9,77.5-29.5c26.8-15.1,50.7-34.6,74.1-54.5c11.8-10,23.5-20.1,35.5-29.8c11.8-9.5,23.9-19,37.5-25.9
				c9.8-5,23.5-10.4,34.2-4.6c9,4.9,11.9,16.1,12.7,25.6c1.1,13-1,26.2-3.6,38.9c-3.2,15.5-8.3,30.4-13.5,45.3
				c-2.3,6.6-4.8,13.9-4.1,21c0.6,6.1,3.6,11.2,8,15.3c8.8,8.5,20.4,13.8,32.2,16.7c28.3,7.1,58.5,3,86.8-2.1
				c15.8-2.8,31.5-6.2,47.3-9.3c7.8-1.5,15.6-3.1,23.4-4.1c6.6-0.8,13.5-1.2,20,0.2c5.8,1.3,10.9,4.2,14,9.5
				c3.1,5.3,3.9,11.7,3.7,17.7c-0.3,14.9-6.3,29.4-12.4,42.8c-3.3,7.2-6.9,14.2-10.5,21.2C976.1,794,980.4,796.5,981.8,793.7
				L981.8,793.7z"/>
		</g>
	</g>
	<g>
		<path class="st1" d="M405.3,644.9c0,0,26.8,2.3,39,28.9c3.5,15.4,8.4,51.9,6.9,59.4c-1.5,7.5-2.3,8.5-14.3,3.9
			c-12-4.6-33.5-13.9-35.3-26.4c-0.2-9.8,3.3-24.7,3.5-25.5c0.2-0.8-6.5-1.8-6.2-4.6S395.8,648.4,405.3,644.9z"/>
		<path class="st1" d="M381.5,644.9c0,0-26.8,2.3-39,28.9c-3.5,15.4-8.4,51.9-6.9,59.4c1.5,7.5,2.3,8.5,14.3,3.9
			c12-4.6,33.5-13.9,35.3-26.4c0.2-9.8-3.3-24.7-3.5-25.5c-0.2-0.8,6.5-1.8,6.2-4.6C387.5,677.7,391.1,648.4,381.5,644.9z"/>
		<path d="M399.9,644.8c3.9-2.8,7.9-2.8,12-1.4c11.3,4,21,10.5,28.6,19.8c3.5,4.3,5.1,9.4,6.3,14.7c0.5,2.4,1,4.8,1.5,7.2
			c0.3,1.6-0.5,2.8-1.8,3c-1.4,0.2-2.4-0.6-2.8-2.2c-0.7-3.1-1.3-6.2-2-9.2c-1.3-5.5-4-10.2-8.1-14.2c-6.2-6.1-13.3-10.8-21.5-14
			c-2.2-0.8-4.4-1.6-6.8-1.1c-3,0.7-5.2,3.1-5.4,6.1c-0.1,1.9-0.1,3.8,0,5.6c0.2,2.7,1.4,5,3.3,6.9c1.5,1.5,2.7,3.5,4.5,4.3
			c1.7,0.8,4,0.2,6,0.2c3.1,0,6.1-0.1,9.1,1.1c4.5,1.9,7.5,5.4,9.5,9.7c0.5,1.1,0,2.4-1.1,3c-1.1,0.6-2.3,0.2-3-0.9
			c-0.7-1.1-1.4-2.4-2.2-3.5c-2.4-3.2-5.5-4.9-9.5-4.8c-1.3,0-2.5,0-4,0c0.4,0.4,0.5,0.7,0.8,0.9c2.8,2.8,5.5,5.5,8.3,8.3
			c4.3,4.3,6.4,9.4,6.4,15.4c0,4.4,0,8.8,0,13.2c0,0.5,0.3,1.2,0.7,1.6c2.5,2.6,5.1,5.2,7.7,7.7c0.7,0.7,1.2,1.5,0.9,2.5
			c-0.4,1.8-2.6,2.4-4,1c-2.2-2.1-4.3-4.3-6.5-6.4c-0.3-0.3-0.6-0.7-1-1.2c-1.1,1.1-2,2-2.9,2.9c-0.7,0.7-1.5,1.1-2.4,0.8
			c-1.8-0.4-2.4-2.5-1.1-3.9c1.1-1.2,2.3-2.2,3.3-3.4c0.4-0.4,0.6-1,0.6-1.5c0.1-2,0-4.1,0-6.2c-0.1-0.1-0.2-0.1-0.3-0.2
			c-0.8,0.8-1.5,1.6-2.3,2.4c-1,1-1.9,2-2.9,2.9c-1,0.9-2.3,0.8-3.2,0c-0.9-0.9-1-2.2-0.1-3.3c0.2-0.3,0.5-0.5,0.7-0.8
			c2.5-2.5,4.9-4.9,7.3-7.4c0.4-0.4,0.6-1,0.6-1.5c-0.1-4.5-1.8-8.2-4.9-11.4c-5.9-5.9-11.8-11.9-17.8-17.8
			c-3.6-3.6-5.4-7.8-5.3-12.9c0.1-9.5,0-18.9,0-28.4c0-0.5,0-0.9,0-1.5c-1.5,0-3,0-4.7,0c0,0.4,0,0.9,0,1.3c0,9.6,0,19.2,0,28.9
			c0,4.8-1.7,9-5.1,12.4c-6,6-12,12-18,18c-3.1,3.1-4.8,6.9-4.9,11.3c0,0.5,0.2,1.1,0.6,1.5c2.4,2.5,4.9,4.9,7.3,7.4
			c0.2,0.2,0.5,0.4,0.6,0.7c1,1.1,1,2.4,0,3.3c-0.9,0.9-2.3,1-3.3,0c-1.5-1.4-2.9-2.9-4.3-4.3c-0.3-0.3-0.5-0.5-1-0.9
			c0,2.5,0,4.7,0,6.9c0,0.3,0.3,0.6,0.5,0.9c1.1,1.1,2.1,2.2,3.2,3.2c1.2,1.2,1.2,2.6,0.2,3.6c-1,1-2.3,0.9-3.5-0.3
			c-0.9-0.9-1.7-1.8-2.6-2.8c-0.4,0.4-0.7,0.6-1,0.9c-2.2,2.2-4.4,4.4-6.5,6.5c-1.2,1.2-2.6,1.3-3.6,0.3c-1.1-1-1-2.4,0.3-3.7
			c2.5-2.5,5-5,7.5-7.5c0.6-0.6,0.8-1.1,0.8-1.9c0-4.3,0-8.7,0-13c0-6.1,2.1-11.3,6.5-15.6c2.7-2.7,5.4-5.3,8-8
			c0.3-0.3,0.5-0.5,0.8-0.9c-7-1.2-11.8,1-15.1,7.1c-0.2,0.4-0.5,0.9-0.8,1.3c-0.8,0.9-2,1.1-3,0.5c-0.9-0.6-1.4-1.7-1-2.7
			c2.4-5.3,7.2-10.6,14.6-10.9c3-0.1,6.1,0,9.1-0.1c0.5,0,1.2-0.3,1.6-0.7c1.2-1.1,2.4-2.3,3.6-3.5c2.4-2.4,3.7-5.4,3.6-8.8
			c0-1.6,0.1-3.2-0.2-4.8c-0.7-3.8-4.3-6.2-8.1-5.4c-4.2,0.8-8.1,2.8-11.8,4.9c-6.1,3.5-11.6,7.6-16.2,13.1c-3.5,4.1-5,9.1-6.2,14.2
			c-1.9,8.5-3,17-3.7,25.6c-0.7,8.4-1.2,16.8-1.8,25.2c-0.1,1.3-0.1,2.6,0.2,3.8c0.5,2.3,3.1,3.9,5.4,3.2
			c10.4-3.3,20.6-7.2,29.5-13.7c2-1.5,3.9-3.2,5.6-5c2.9-3,4-6.9,4.3-11c0.5-6.5-0.7-12.7-2.5-18.9c0-0.1-0.1-0.2-0.3-0.5
			c-1.3,1.3-2.5,2.6-3.7,3.8c-0.3,0.3-0.7,0.7-1.1,0.9c-0.9,0.5-2,0.4-2.8-0.4s-0.9-1.9-0.3-2.8c0.2-0.4,0.6-0.7,0.9-1.1
			c3.7-3.7,7.4-7.4,11.1-11.1c5.2-5.2,12.2-5.2,17.4,0c3.7,3.7,7.3,7.3,11,11c0.2,0.2,0.5,0.4,0.6,0.7c0.9,1.1,0.9,2.3,0,3.3
			c-0.9,0.9-2.2,1-3.2,0c-1.2-1.1-2.3-2.2-3.4-3.4c-0.3-0.3-0.5-0.7-0.8-1c-2.3,7.5-3.8,15-2.3,22.6c0.8,4.2,3.1,7.4,6.2,10.2
			c5,4.4,10.8,7.7,16.9,10.3c5,2.2,10.2,4,15.4,5.9c3.1,1.1,6.3-1.2,6.1-4.7c-0.3-6.1-0.7-12.2-1-18.3c-0.1-2.3-0.4-4.6-0.6-6.9
			c-0.1-1.8,0.7-2.8,2.1-2.9c1.5-0.1,2.4,0.9,2.5,2.6c0.5,7.8,1.1,15.5,1.5,23.3c0.1,1.3,0.1,2.8-0.1,4.1c-1,5.6-6.5,8.9-11.9,7.2
			c-7.8-2.5-15.4-5.4-22.6-9.3c-4.7-2.6-9.1-5.5-13-9.2c-4.4-4.3-6.4-9.6-6.8-15.6c-0.5-7.5,1-14.7,3.2-21.8
			c0.3-0.9,0.2-1.5-0.5-2.1c-1.1-1-2.1-2.1-3.2-3.1c-2.9-2.7-7-2.7-9.9,0c-1,1-2,2-3,3c-0.8,0.7-0.9,1.3-0.6,2.3
			c2,6.4,3.3,12.9,3.3,19.6c0,8.7-3.5,15.5-10.3,20.8c-6.9,5.3-14.6,9-22.7,12.1c-3.5,1.3-7,2.7-10.6,3.5c-5.6,1.3-11-3.3-10.9-9
			c0.1-5.1,0.4-10.2,0.8-15.3c0.6-7.2,1.2-14.4,2-21.5c0.8-7.4,2-14.7,4-21.9c1.5-5.5,4.3-10.2,8.3-14.3
			c6.6-6.8,14.4-11.9,23.1-15.5c4.9-2,9.7-3,14.6,0.5c0-0.7,0-1.1,0-1.5c0-6,0-12,0-18c0-2.2,0.8-3,3-3c2.8,0,5.5,0,8.3,0
			c1.9,0,2.8,0.9,2.8,2.8c0,6,0,12.1,0,18.1C399.9,643.7,399.9,644.2,399.9,644.8z"/>
		<path d="M449.9,696.2c0,1.3-1,2.4-2.3,2.4c-1.2,0-2.3-1-2.3-2.3c0-1.3,1-2.4,2.3-2.4C448.8,694,449.9,695,449.9,696.2z"/>
	</g>
</g>
</svg>
