<?xml version="1.0" encoding="UTF-8"?>
<!DOCTYPE svg PUBLIC "-//W3C//DTD SVG 1.1//EN" "http://www.w3.org/Graphics/SVG/1.1/DTD/svg11.dtd">
<!-- Creator: CorelDRAW 2023 -->
<svg xmlns="http://www.w3.org/2000/svg" xml:space="preserve" width="0.348736in" height="0.394429in" version="1.1" style="shape-rendering:geometricPrecision; text-rendering:geometricPrecision; image-rendering:optimizeQuality; fill-rule:evenodd; clip-rule:evenodd"
viewBox="0 0 18.83 21.29"
 xmlns:xlink="http://www.w3.org/1999/xlink"
 xmlns:xodm="http://www.corel.com/coreldraw/odm/2003">
 <defs>
  <style type="text/css">
   <![CDATA[
    .str0 {stroke:#231F20;stroke-width:0.75;stroke-miterlimit:3.864}
    .fil0 {fill:none}
    .fil1 {fill:#2B2A29;fill-rule:nonzero}
   ]]>
  </style>
 </defs>
 <g id="Layer_x0020_1">
  <metadata id="CorelCorpID_0Corel-Layer"/>
  <g>
   <polyline class="fil0 str0" points="0.37,20.24 0.37,2.05 9.2,0.43 9.81,2.8 "/>
  </g>
  <g>
   <path class="fil0 str0" d="M3.53 1.45c0,2.17 -1.48,3.93 -3.3,3.93"/>
  </g>
  <path class="fil1" d="M7.98 21.27l2.74 -1.34 0 -0.46 -2.74 -1.34 0 0.53 2.13 1.04 -2.13 1.04 0 0.53zm3.41 -0.11c0.13,0.07 0.52,0.13 0.78,0.13 1.19,0 1.53,-1.19 1.53,-2.32 0,-0.95 -0.22,-2.01 -1.27,-2.01 -0.69,0 -1.21,0.52 -1.21,1.39 0,0.75 0.4,1.32 1.13,1.32 0.31,0 0.57,-0.11 0.82,-0.38l0.01 -0.01c-0.01,0.8 -0.35,1.52 -1.05,1.52 -0.24,0 -0.47,-0.06 -0.67,-0.17l-0.08 0.53zm0.4 -2.83c0,-0.45 0.22,-0.88 0.67,-0.88 0.44,0 0.66,0.48 0.66,0.88 0,0.47 -0.25,0.84 -0.7,0.84 -0.43,0 -0.63,-0.45 -0.63,-0.84zm2.41 0.79c0,0.92 0.24,2.16 1.28,2.16 1.04,0 1.28,-1.25 1.28,-2.16 0,-0.92 -0.24,-2.17 -1.28,-2.17 -1.04,0 -1.28,1.25 -1.28,2.17zm0.57 0c0,-0.53 0.09,-1.67 0.71,-1.67 0.62,0 0.71,1.14 0.71,1.67 0,0.52 -0.06,1.67 -0.71,1.67 -0.65,0 -0.71,-1.15 -0.71,-1.67zm2.51 -1.31c0,0.47 0.35,0.86 0.77,0.86 0.43,0 0.77,-0.38 0.77,-0.86 0,-0.47 -0.35,-0.86 -0.77,-0.86 -0.43,0 -0.77,0.38 -0.77,0.86zm0.35 0c0,-0.26 0.19,-0.47 0.43,-0.47 0.24,0 0.43,0.21 0.43,0.47 0,0.26 -0.19,0.47 -0.43,0.47 -0.24,0 -0.43,-0.21 -0.43,-0.47z"/>
 </g>
</svg>
