<?xml version="1.0" encoding="UTF-8"?>
<!DOCTYPE svg PUBLIC "-//W3C//DTD SVG 1.1//EN" "http://www.w3.org/Graphics/SVG/1.1/DTD/svg11.dtd">
<!-- Creator: CorelDRAW 2023 -->
<svg xmlns="http://www.w3.org/2000/svg" xml:space="preserve" width="0.600673in" height="0.238886in" version="1.1" style="shape-rendering:geometricPrecision; text-rendering:geometricPrecision; image-rendering:optimizeQuality; fill-rule:evenodd; clip-rule:evenodd"
viewBox="0 0 52.51 20.88"
 xmlns:xlink="http://www.w3.org/1999/xlink"
 xmlns:xodm="http://www.corel.com/coreldraw/odm/2003">
 <defs>
  <style type="text/css">
   <![CDATA[
    .str0 {stroke:#231F20;stroke-width:1.21;stroke-miterlimit:3.864}
    .str1 {stroke:#231F20;stroke-width:1.21;stroke-miterlimit:3.864}
    .fil0 {fill:none}
    .fil1 {fill:#231F20}
   ]]>
  </style>
 </defs>
 <g id="Layer_x0020_1">
  <metadata id="CorelCorpID_0Corel-Layer"/>
  <g id="_3061476297360">
   <path class="fil0 str0" d="M0.61 10.68c0,-3.16 2.56,-5.73 5.73,-5.73 3.16,0 5.73,2.56 5.73,5.73 0,3.16 -2.57,5.73 -5.73,5.73 -3.16,0 -5.73,-2.56 -5.73,-5.73z"/>
   <g>
    <path class="fil0 str1" d="M5.52 10.68c0,-0.45 0.37,-0.82 0.82,-0.82 0.45,0 0.82,0.37 0.82,0.82 0,0.45 -0.37,0.82 -0.82,0.82 -0.45,0 -0.82,-0.37 -0.82,-0.82z"/>
    <path id="_1" class="fil1" d="M5.52 10.68c0,-0.45 0.37,-0.82 0.82,-0.82 0.45,0 0.82,0.37 0.82,0.82 0,0.45 -0.37,0.82 -0.82,0.82 -0.45,0 -0.82,-0.37 -0.82,-0.82z"/>
   </g>
   <g>
    <path class="fil0 str1" d="M10.75 14.47c0,0 3.54,0.95 4.41,1.01 0.87,0.06 13.26,0 13.26,0"/>
   </g>
   <g>
    <path class="fil0 str1" d="M9.98 6.31c0,0 3.4,-0.77 4.27,-0.83 0.87,-0.06 14.47,0 14.47,0"/>
   </g>
   <g>
    <path class="fil0 str1" d="M28.3 5.48l0.11 -0c2.76,0 5,2.24 5,5 0,2.76 -2.24,5 -5,5l-0.11 -0"/>
   </g>
   <g>
    <line class="fil0 str1" x1="14.9" y1="15.42" x2="26.58" y2= "20.32" />
   </g>
   <g>
    <line class="fil0 str1" x1="14.21" y1="5.46" x2="25.89" y2= "0.56" />
   </g>
   <g>
    <polyline class="fil0 str1" points="31.62,14.28 49.83,14.28 52.12,16.24 "/>
   </g>
   <g>
    <polyline class="fil0 str1" points="31.73,6.86 49.83,6.86 52.12,4.89 "/>
   </g>
  </g>
 </g>
</svg>
