<?xml version="1.0" encoding="UTF-8"?>
<svg width="60px" height="51px" viewBox="0 0 60 51" version="1.1" xmlns="http://www.w3.org/2000/svg" xmlns:xlink="http://www.w3.org/1999/xlink">
    <!-- Generator: Sketch 57.1 (83088) - https://sketch.com -->
    <title>1.4</title>
    <desc>Created with Sketch.</desc>
    <g id="IP" stroke="none" stroke-width="1" fill="none" fill-rule="evenodd">
        <g id="10.1.1---OP---EMR---OP-Case-Sheet---Examination" transform="translate(-916.000000, -594.000000)">
            <g id="1.4" transform="translate(916.000000, 594.000000)">
                <path d="M14.075,26.65 C14.075,19.65 23.375,14.15 34.975,14.15 C46.575,14.15 55.875,19.725 55.875,26.65 C55.875,33.575 46.6,39.15 34.975,39.15 C23.35,39.15 14.075,33.55 14.075,26.65" id="Path" fill="#FFFFFF"></path>
                <ellipse id="Oval" stroke="#000000" stroke-width="2" stroke-linecap="square" cx="35" cy="26.65" rx="20.9" ry="12.6"></ellipse>
                <path d="M1.65,26.125 C1.65,18.275 6.275,11.975 12.05,11.975 C17.825,11.975 22.55,18.275 22.55,26.125 C22.55,33.975 17.825,40.3 12.05,40.3 C6.275,40.3 1.65,33.95 1.65,26.125" id="Path" fill="#FFFFFF"></path>
                <ellipse id="Oval" stroke="#000000" stroke-width="2" stroke-linecap="square" cx="12.05" cy="26.125" rx="10.4" ry="14.175"></ellipse>
                <path d="M28.775,15.525 L33.675,8.6" id="Path" stroke="#000000" stroke-width="2" stroke-linecap="square"></path>
                <path d="M33.675,8.6 L24.5,2.3" id="Path" stroke="#000000" stroke-width="2" stroke-linecap="square"></path>
                <path d="M27.55,36.1 L32.45,43.025" id="Path" stroke="#000000" stroke-width="2" stroke-linecap="square"></path>
                <path d="M32.45,43.025 L23.275,49.325" id="Path" stroke="#000000" stroke-width="2" stroke-linecap="square"></path>
                <rect id="Rectangle" fill="#FFFFFF" fill-rule="nonzero" x="6.35" y="19.525" width="5.5" height="5.05"></rect>
                <rect id="Rectangle" stroke="#000000" stroke-width="2" stroke-linecap="square" x="6.35" y="19.525" width="5.5" height="5.05"></rect>
                <rect id="Rectangle" fill="#FFFFFF" fill-rule="nonzero" x="6.35" y="28.325" width="5.5" height="5.675"></rect>
                <rect id="Rectangle" stroke="#000000" stroke-width="2" stroke-linecap="square" x="6.35" y="28.325" width="5.5" height="5.675"></rect>
                <path d="M14.1,19.95 L16.55,23.725" id="Path" stroke="#000000" stroke-width="2" stroke-linecap="square"></path>
                <path d="M16.55,23.725 L16.55,31.275" id="Path" stroke="#000000" stroke-width="2" stroke-linecap="square"></path>
                <path d="M16.55,31.275 L14.7,33.175" id="Path" stroke="#000000" stroke-width="2" stroke-linecap="square"></path>
                <path d="M53.85,24.35 L40.4,21.2" id="Path" stroke="#000000" stroke-width="2" stroke-linecap="square"></path>
                <path d="M39.775,21.2 L58.125,14.9" id="Path" stroke="#000000" stroke-width="2" stroke-linecap="square"></path>
                <path d="M58.125,14.9 L53.85,12.375" id="Path" stroke="#000000" stroke-width="2" stroke-linecap="square"></path>
                <path d="M53.25,27.925 L39.775,31.075" id="Path" stroke="#000000" stroke-width="2" stroke-linecap="square"></path>
                <path d="M39.175,31.075 L57.525,37.375" id="Path" stroke="#000000" stroke-width="2" stroke-linecap="square"></path>
                <path d="M57.525,37.375 L53.25,39.875" id="Path" stroke="#000000" stroke-width="2" stroke-linecap="square"></path>
            </g>
        </g>
    </g>
</svg>