<?xml version="1.0" encoding="UTF-8"?>
<svg width="39px" height="88px" viewBox="0 0 39 88" version="1.1" xmlns="http://www.w3.org/2000/svg" xmlns:xlink="http://www.w3.org/1999/xlink">
    <!-- Generator: Sketch 57.1 (83088) - https://sketch.com -->
    <title>2.2.2</title>
    <desc>Created with Sketch.</desc>
    <g id="IP" stroke="none" stroke-width="1" fill="none" fill-rule="evenodd">
        <g id="10.1.3---OP---EMR---OP-Case-Sheet---Examination---2" transform="translate(-783.000000, -535.000000)">
            <g id="2.2.2" transform="translate(783.000000, 535.000000)">
                <path d="M1.75048828,82.2724609 L2.96630859,82.2724609 C3.78174236,82.2724609 4.37255676,82.1210953 4.73876953,81.8183594 C5.1049823,81.5156235 5.28808594,81.0664092 5.28808594,80.4707031 C5.28808594,79.8652313 5.09033401,79.4306654 4.69482422,79.1669922 C4.29931443,78.903319 3.70361726,78.7714844 2.90771484,78.7714844 L1.75048828,78.7714844 L1.75048828,82.2724609 Z M1.75048828,83.7226562 L1.75048828,88 L0,88 L0,77.2919922 L3.02490234,77.2919922 C4.40674519,77.2919922 5.42968418,77.5507787 6.09375,78.0683594 C6.75781582,78.5859401 7.08984375,79.3671823 7.08984375,80.4121094 C7.08984375,81.7451239 6.39649131,82.6948214 5.00976562,83.2612305 L8.03466797,88 L6.04248047,88 L3.47900391,83.7226562 L1.75048828,83.7226562 Z" id="R" fill="#333333" fill-rule="nonzero"></path>
                <polygon id="L" fill="#333333" fill-rule="nonzero" points="30 88 30 77.2919922 31.7504883 77.2919922 31.7504883 86.4985352 36.2841797 86.4985352 36.2841797 88"></polygon>
                <g transform="translate(2.586426, 0.000000)">
                    <path d="M1.76944444,44.0611111 C1.76944444,58.3138889 7.40833333,69.9805556 14.1944444,69.9805556 C20.9805556,69.9805556 26.7944444,58.5083333 26.7944444,44.0611111 C26.7944444,29.6138889 21.3888889,18.3944444 14.1944444,18.3944444 C7,18.3944444 1.76944444,29.8472222 1.76944444,44.0611111 Z" id="Path" fill="#FFFFFF"></path>
                    <path d="M1.76944444,44.0611111 C1.76944444,58.3138889 7.40833333,69.9611111 14.1944444,69.9611111 C20.9805556,69.9611111 26.7944444,58.5083333 26.7944444,44.0611111 C26.7944444,29.6138889 21.3888889,18.3944444 14.1944444,18.3944444 C7,18.3944444 1.76944444,29.8472222 1.76944444,44.0611111 Z" id="Path" stroke="#000000" stroke-width="2" stroke-linejoin="round"></path>
                    <path d="M14.9722222,69.3388889 L14.9722222,23.7222222" id="Path" stroke="#000000" stroke-width="2" stroke-linejoin="round"></path>
                    <path d="M1.20555556,14.6416667 C1.14317609,18.1964626 2.49840298,21.6298736 4.9719585,24.1836919 C7.44551401,26.7375103 10.8339134,28.2016486 14.3888889,28.2527778 C17.9573149,28.2383246 21.369328,26.7863367 23.8538932,24.2249292 C26.3384585,21.6635217 27.685878,18.2088781 27.5916667,14.6416667 C27.7148033,11.082542 26.3712031,7.62896592 23.875169,5.08881929 C21.3791349,2.54867266 17.9496245,1.14478268 14.3888889,1.20555556 C10.8382281,1.17242791 7.42698671,2.58574202 4.94013578,5.12027593 C2.45328484,7.65480985 1.10500594,11.0922752 1.20555556,14.6416667 Z" id="Path" fill="#FFFFFF"></path>
                    <path d="M1.20555556,14.6416667 C1.14317609,18.1964626 2.49840298,21.6298736 4.9719585,24.1836919 C7.44551401,26.7375103 10.8339134,28.2016486 14.3888889,28.2527778 C17.9573149,28.2383246 21.369328,26.7863367 23.8538932,24.2249292 C26.3384585,21.6635217 27.685878,18.2088781 27.5916667,14.6416667 C27.7148033,11.082542 26.3712031,7.62896592 23.875169,5.08881929 C21.3791349,2.54867266 17.9496245,1.14478268 14.3888889,1.20555556 C10.8382281,1.17242791 7.42698671,2.58574202 4.94013578,5.12027593 C2.45328484,7.65480985 1.10500594,11.0922752 1.20555556,14.6416667 Z" id="Path" stroke="#000000" stroke-width="2" stroke-linejoin="round"></path>
                    <path d="M5.65833333,29.6527778 L23.6833333,42.0777778" id="Path" stroke="#000000" stroke-width="2" stroke-linejoin="round"></path>
                    <path d="M23.6833333,42.6611111 L34.7861111,27.8833333" id="Path" stroke="#000000" stroke-width="2" stroke-linejoin="round"></path>
                    <rect id="Rectangle" fill="#FFFFFF" fill-rule="nonzero" x="7.01944444" y="6.53333333" width="4.23888889" height="5.11388889"></rect>
                    <rect id="Rectangle" stroke="#000000" stroke-width="2" stroke-linejoin="round" x="7.01944444" y="6.53333333" width="4.23888889" height="5.11388889"></rect>
                    <rect id="Rectangle" fill="#FFFFFF" fill-rule="nonzero" x="16.3333333" y="7.11666667" width="4.23888889" height="4.33611111"></rect>
                    <rect id="Rectangle" stroke="#000000" stroke-width="2" stroke-linejoin="round" x="16.3333333" y="7.11666667" width="4.23888889" height="4.33611111"></rect>
                    <path d="M8.575,17.1888889 L10.325,20.1638889" id="Path" stroke="#000000" stroke-width="2" stroke-linejoin="round"></path>
                    <path d="M10.325,20.1638889 L17.8888889,20.7472222" id="Path" stroke="#000000" stroke-width="2" stroke-linejoin="round"></path>
                    <path d="M17.8888889,20.7472222 L19.6388889,17.7722222" id="Path" stroke="#000000" stroke-width="2" stroke-linejoin="round"></path>
                </g>
            </g>
        </g>
    </g>
</svg>